<?xml version="1.0" encoding="utf-8"?>
<!-- Generator: Adobe Illustrator 25.2.0, SVG Export Plug-In . SVG Version: 6.00 Build 0)  -->
<svg version="1.1" id="Layer_1" xmlns="http://www.w3.org/2000/svg" xmlns:xlink="http://www.w3.org/1999/xlink" x="0px" y="0px"
	 viewBox="0 0 500 500" style="enable-background:new 0 0 500 500;" xml:space="preserve">
<style type="text/css">
	.st0{fill:#1FACE1;}
</style>
<path class="st0" d="M201.7,276.5c-9.5,0-18.3,0-27.1,0c-7.5,0-14.9,0.1-22.4-0.1c-7.8-0.2-10.4-2.5-10.4-10.3
	c-0.2-20.3-0.2-40.6,0-60.9c0.1-7.7,2.8-10.1,10.5-10.2c14.5-0.1,28.9,0,43.4,0c1.8,0,3.5,0,6,0c0-2.2,0-4.1,0-6
	c0.3-18.5-0.4-37.1,1.2-55.5c4-46.9,39.8-80.3,86.8-81.9c19.1-0.6,38.3-0.3,57.5-0.2c6.7,0,9.5,2.8,9.5,9.5c0.1,19,0.1,38,0,57
	c0,7.3-2.6,9.9-10.1,10.1c-13.2,0.3-26.3,0.3-39.5,0.5c-14.8,0.2-21,6-21.3,20.6c-0.3,14.7-0.1,29.5-0.1,44.8c2.2,0,4,0,5.7,0
	c16.7,0,33.5,0,50.2,0c10.5,0,13,2.5,13,12.8c0,19.3,0,38.7,0,58c0,8.7-2.3,11-11,11c-19,0.1-38,0-57.9,0c0,2.3,0,4.3,0,6.3
	c0,50.8,0,101.7,0,152.5c0,14-1.5,15.5-15.7,15.5c-18.7,0-37.4,0-56,0c-10,0-12.4-2.4-12.4-12.3c0-51.7,0-103.3,0-155
	C201.7,281,201.7,279.1,201.7,276.5z"/>
</svg>
