<?xml version="1.0" encoding="utf-8"?>
<!-- Generator: Adobe Illustrator 25.2.0, SVG Export Plug-In . SVG Version: 6.00 Build 0)  -->
<svg version="1.1" id="Layer_1" xmlns="http://www.w3.org/2000/svg" xmlns:xlink="http://www.w3.org/1999/xlink" x="0px" y="0px"
	 viewBox="0 0 500 500" style="enable-background:new 0 0 500 500;" xml:space="preserve">
<style type="text/css">
	.st0{fill:#1face1;}
</style>
<path class="st0" d="M274,450c-27.8,0-54.9,0-82.4,0c0-88.6,0-177.2,0-266.1c26,0,52.1,0,78.8,0c0,11.8,0,23.5,0,35.8
	c1.1-0.6,1.6-0.7,1.8-1.1c17.4-28,43.4-40.4,75.5-41.4c18.4-0.6,36.3,1.7,53.2,9.6c21.8,10.3,34,28.3,40.8,50.7
	c5.4,17.9,7.2,36.3,7.4,54.9c0.3,51.3,0.2,102.7,0.3,154c0,0.8-0.1,1.6-0.2,2.7c-27.5,0-54.7,0-82.7,0c0-1.8,0-3.7,0-5.5
	c0-43.5,0.1-87.1-0.2-130.6c-0.1-9.9-0.8-19.8-2.6-29.5c-5-27.3-22.8-36.5-48.2-33.5c-23.1,2.7-35.9,16.3-39.5,41.3
	c-1.3,9.1-1.9,18.4-1.9,27.7c-0.2,41.6-0.1,83.2-0.1,124.8C274,445.6,274,447.5,274,450z"/>
<path class="st0" d="M56.7,183.8c27.6,0,54.9,0,82.3,0c0,88.7,0,177.2,0,266c-27.4,0-54.8,0-82.3,0
	C56.7,361.2,56.7,272.7,56.7,183.8z"/>
<path class="st0" d="M145.7,98.5c0.1,26.5-21.3,48.4-47.5,48.6c-26.3,0.2-48.3-21.8-48.3-48.4c0-26.1,21.4-47.7,47.6-48
	C123.9,50.5,145.5,72,145.7,98.5z"/>
</svg>
