<svg width="25" height="25" viewBox="0 0 25 25" fill="none" xmlns="http://www.w3.org/2000/svg">
<path d="M23.2086 22.1039L17.5375 16.4326C18.7809 14.9418 19.5313 13.0262 19.5313 10.9375C19.5313 6.19883 15.6762 2.34375 10.9375 2.34375C6.19883 2.34375 2.34375 6.19883 2.34375 10.9375C2.34375 15.6762 6.19883 19.5312 10.9375 19.5312C13.0262 19.5312 14.9418 18.7809 16.4326 17.5375L22.1039 23.2088C22.2564 23.3613 22.4564 23.4377 22.6563 23.4377C22.8561 23.4377 23.0561 23.3613 23.2086 23.2088C23.2812 23.1363 23.3387 23.0501 23.378 22.9553C23.4173 22.8606 23.4375 22.759 23.4375 22.6563C23.4375 22.5537 23.4173 22.4521 23.378 22.3574C23.3387 22.2626 23.2812 22.1764 23.2086 22.1039ZM3.90625 10.9375C3.90625 7.06055 7.06016 3.90625 10.9375 3.90625C14.8148 3.90625 17.9688 7.06055 17.9688 10.9375C17.9688 14.8145 14.8148 17.9688 10.9375 17.9688C7.06016 17.9688 3.90625 14.8145 3.90625 10.9375Z" fill="white"/>
</svg>
