<?xml version="1.0" encoding="utf-8"?>
<!-- Generator: Adobe Illustrator 25.2.0, SVG Export Plug-In . SVG Version: 6.00 Build 0)  -->
<svg version="1.1" id="Layer_1" xmlns="http://www.w3.org/2000/svg" xmlns:xlink="http://www.w3.org/1999/xlink" x="0px" y="0px"
	 viewBox="0 0 106.9 23" style="enable-background:new 0 0 106.9 23;" xml:space="preserve">
<style type="text/css">
	.st0{enable-background:new    ;}
	.st1{fill:#1FACE1;}
	.st2{fill:#FFFFFF;}
</style>
<g class="st0">
	<path class="st1" d="M14.8,7.6c-0.4-0.7-0.9-1.2-1.6-1.6c-0.7-0.4-1.5-0.6-2.5-0.6c-1.7,0-3,0.5-4,1.6c-1,1.1-1.5,2.5-1.5,4.4
		c0,1.9,0.5,3.5,1.6,4.5c1,1.1,2.5,1.6,4.3,1.6c1.3,0,2.3-0.3,3.2-1c0.9-0.6,1.5-1.6,1.9-2.8H9.7v-3.8h11.2v4.8
		c-0.4,1.3-1,2.5-1.9,3.6c-0.9,1.1-2.1,2-3.5,2.7c-1.4,0.7-3,1-4.7,1c-2.1,0-3.9-0.5-5.6-1.4c-1.6-0.9-2.9-2.2-3.8-3.8
		C0.4,15.4,0,13.5,0,11.4s0.5-3.9,1.4-5.6C2.3,4.2,3.5,3,5.1,2.1s3.5-1.4,5.6-1.4c2.5,0,4.6,0.6,6.4,1.8c1.7,1.2,2.9,2.9,3.4,5.1
		H14.8z"/>
	<path class="st1" d="M41.8,0.9L34.5,15v7h-5.1v-7L22.1,0.9h5.8L32,9.8L36,0.9H41.8z"/>
	<path class="st1" d="M67.7,0.9V22h-5.1V9.4L57.9,22h-4.1L49,9.3V22h-5.1V0.9h6.1l5.9,14.6l5.9-14.6H67.7z"/>
</g>
<g class="st0">
	<path class="st2" d="M83.4,1.1v2.2h-9.1v7.1h7.4v2.2h-7.4V22h-2.7V1.1H83.4z"/>
	<path class="st2" d="M89.4,1.1V22h-2.7V1.1H89.4z"/>
	<path class="st2" d="M106.9,1.1v2.2h-5.7V22h-2.7V3.3h-5.7V1.1H106.9z"/>
</g>
</svg>
