<svg width="141" height="34" viewBox="0 0 141 34" fill="none" xmlns="http://www.w3.org/2000/svg">
<g clip-path="url(#clip0_128_3)">
<path d="M24.7466 34H18.1073L7.00303 15.9537V34H0.36377V4.74246H7.00303L18.1073 22.8721V4.74246H24.7466V34ZM49.9817 21.9969C49.9817 22.6637 49.9428 23.3583 49.8652 24.0808H34.8395C34.9431 25.5256 35.3702 26.637 36.1208 27.415C36.8973 28.1652 37.8421 28.5403 38.9551 28.5403C40.6117 28.5403 41.7635 27.7901 42.4106 26.2897H49.4769C49.1146 27.8178 48.4546 29.1932 47.4968 30.4157C46.565 31.6383 45.3873 32.5969 43.9636 33.2915C42.54 33.9861 40.9482 34.3334 39.188 34.3334C37.0656 34.3334 35.1761 33.8472 33.5194 32.8747C31.8629 31.9022 30.5686 30.513 29.6368 28.707C28.705 26.9009 28.2391 24.7893 28.2391 22.372C28.2391 19.9547 28.6921 17.8431 29.598 16.037C30.5298 14.231 31.824 12.8418 33.4806 11.8693C35.1372 10.8968 37.0397 10.4106 39.188 10.4106C41.2846 10.4106 43.1483 10.883 44.779 11.8276C46.4097 12.7723 47.6781 14.1199 48.5839 15.8703C49.5158 17.6208 49.9817 19.663 49.9817 21.9969ZM43.1871 20.1214C43.1871 18.8989 42.7988 17.9265 42.0223 17.204C41.2458 16.4816 40.2751 16.1204 39.1104 16.1204C37.9974 16.1204 37.0526 16.4677 36.2761 17.1623C35.5255 17.8569 35.0596 18.8434 34.8783 20.1214H43.1871ZM65.5591 27.9568V34H62.1812C59.774 34 57.8975 33.3748 56.5515 32.1245C55.2055 30.8465 54.5325 28.7764 54.5325 25.9146V16.6622H51.8923V10.744H54.5325V5.07588H61.1718V10.744H65.5203V16.6622H61.1718V25.9979C61.1718 26.6925 61.3271 27.1927 61.6377 27.4983C61.9483 27.804 62.466 27.9568 63.1907 27.9568H65.5591ZM85.7584 18.9961C87.3374 19.3573 88.6057 20.2048 89.5633 21.5385C90.5211 22.8444 90.9999 24.3448 90.9999 26.0396C90.9999 28.4847 90.1975 30.4297 88.5927 31.8745C87.0138 33.2915 84.8007 34 81.9534 34H69.2573V4.74246H81.5263C84.296 4.74246 86.4572 5.42323 88.0103 6.78465C89.5893 8.14608 90.3787 9.99381 90.3787 12.3277C90.3787 14.0505 89.9516 15.4813 89.0974 16.6205C88.2692 17.7597 87.1561 18.5516 85.7584 18.9961ZM75.8965 16.5788H80.2451C81.3322 16.5788 82.1605 16.3288 82.7299 15.8287C83.3253 15.3008 83.6229 14.5367 83.6229 13.5364C83.6229 12.5361 83.3253 11.772 82.7299 11.2441C82.1605 10.7163 81.3322 10.4523 80.2451 10.4523H75.8965V16.5788ZM80.7886 28.2485C81.9017 28.2485 82.7559 27.9845 83.3512 27.4567C83.9724 26.9009 84.283 26.109 84.283 25.081C84.283 24.053 83.9595 23.2472 83.3123 22.6637C82.6911 22.0803 81.8241 21.7885 80.711 21.7885H75.8965V28.2485H80.7886ZM98.1898 8.32672C97.025 8.32672 96.0672 7.96555 95.3166 7.2431C94.5918 6.49291 94.2295 5.57601 94.2295 4.49239C94.2295 3.38103 94.5918 2.46413 95.3166 1.74168C96.0672 0.991491 97.025 0.616394 98.1898 0.616394C99.3286 0.616394 100.26 0.991491 100.986 1.74168C101.736 2.46413 102.112 3.38103 102.112 4.49239C102.112 5.57601 101.736 6.49291 100.986 7.2431C100.26 7.96555 99.3286 8.32672 98.1898 8.32672ZM101.49 10.744V34H94.8507V10.744H101.49ZM112.514 28.1235H121.91V34H105.098V28.3319L114.106 16.6205H105.176V10.744H121.716V16.4121L112.514 28.1235ZM131.775 28.1235H141.171V34H124.359V28.3319L133.367 16.6205H124.437V10.744H140.977V16.4121L131.775 28.1235Z" fill="#0094e2"/>
</g>
<defs>
<clipPath id="clip0_128_3">
<rect width="141" height="34" fill="white"/>
</clipPath>
</defs>
</svg>
