<svg xmlns="http://www.w3.org/2000/svg" xmlns:xlink="http://www.w3.org/1999/xlink" width="27.624" height="40.124" viewBox="0 0 27.624 40.124">
  <defs>
    <style>
      .cls-1 {
        fill: #82b53f;
        fill-rule: evenodd;
        filter: url(#filter);
      }
    </style>
    <filter id="filter" x="193.688" y="913.938" width="27.624" height="40.124" filterUnits="userSpaceOnUse">
      <feFlood result="flood" flood-color="#fff"/>
      <feComposite result="composite" operator="in" in2="SourceGraphic"/>
      <feBlend result="blend" in2="SourceGraphic"/>
    </filter>
  </defs>
  <path id="Forma_1" data-name="Forma 1" class="cls-1" d="M220.649,923.913a12.6,12.6,0,0,0-.647-1.605,13.721,13.721,0,0,0-26.3,4.068v1.713c0,0.072.025,0.713,0.06,1.034,0.5,4,3.646,8.246,6,12.242,2.529,4.283,5.153,8.5,7.753,12.705,1.6-2.748,3.2-5.532,4.766-8.209,0.427-.783.923-1.569,1.35-2.32,0.285-.5.829-1,1.078-1.462,2.528-4.639,6.6-9.314,6.6-13.918v-1.893A14.317,14.317,0,0,0,220.649,923.913Zm-13.225,8.6a4.9,4.9,0,0,1-4.69-3.354,4.683,4.683,0,0,1-.132-1.249V926.8c0-3.14,2.661-4.568,4.975-4.568a5.05,5.05,0,0,1,5.054,5.141A5.179,5.179,0,0,1,207.424,932.515Z" transform="translate(-193.688 -913.938)"/>
</svg>
