<svg width="25" height="25" viewBox="0 0 25 25" fill="none" xmlns="http://www.w3.org/2000/svg">
<path
d="M24.7498 13.2425C24.6873 13.69 24.6448 14.1425 24.5623 14.585C23.9223 18.05 22.1248 20.7625 19.1973 22.7125C17.0823 24.12 14.7298 24.7775 12.1948 24.695C8.66729 24.58 5.70978 23.19 3.35478 20.56C1.71478 18.7275 0.702279 16.5725 0.409778 14.13C-0.105222 9.84 1.24728 6.205 4.45228 3.3C6.27479 1.65 8.44729 0.7 10.8848 0.3575C11.1748 0.3175 11.4673 0.2875 11.7573 0.25C12.2673 0.25 12.7773 0.25 13.2848 0.25C13.3473 0.2625 13.4073 0.285 13.4698 0.29C15.5423 0.4475 17.4573 1.08 19.1848 2.23C22.1173 4.1825 23.9223 6.8975 24.5623 10.37C24.6448 10.815 24.6873 11.265 24.7498 11.7125C24.7498 12.2225 24.7498 12.7325 24.7498 13.2425ZM1.51728 12.47C1.51228 18.55 6.43729 23.4775 12.5173 23.4775C18.5898 23.48 23.5048 18.575 23.5198 12.495C23.5373 6.42 18.6198 1.49 12.5298 1.475C6.45729 1.4625 1.52478 6.3875 1.51728 12.47Z"
fill="#FFF"></path>
<path
d="M12.4898 11.6475C12.9573 11.18 13.3673 10.77 13.7748 10.3575C14.2073 9.92498 14.6373 9.48748 15.0748 9.05998C15.3573 8.78498 15.7173 8.76998 15.9673 9.01248C16.2248 9.26248 16.2198 9.63748 15.9348 9.92248C15.1573 10.7075 14.3723 11.4875 13.5898 12.2675C13.5273 12.3275 13.4473 12.37 13.3573 12.435C13.4598 12.5425 13.5173 12.605 13.5773 12.665C14.3473 13.435 15.1248 14.2025 15.8848 14.9825C16.0098 15.11 16.1073 15.295 16.1423 15.47C16.1923 15.7175 16.0523 15.9175 15.8298 16.0375C15.6148 16.1525 15.3998 16.1375 15.1998 15.9975C15.1223 15.9425 15.0548 15.8725 14.9873 15.8075C14.2323 15.055 13.4773 14.3 12.7273 13.545C12.6673 13.485 12.6248 13.4025 12.5623 13.3125C12.4523 13.4175 12.3898 13.475 12.3298 13.535C11.5598 14.305 10.7898 15.08 10.0148 15.8425C9.90484 15.95 9.76484 16.045 9.61984 16.0925C9.38984 16.1675 9.13484 16.05 8.99484 15.8475C8.85484 15.6475 8.84734 15.3775 8.98484 15.175C9.04234 15.09 9.11734 15.015 9.18984 14.9425C9.94234 14.1875 10.6973 13.4325 11.4523 12.6825C11.5148 12.6225 11.5948 12.58 11.6848 12.515C11.5823 12.4075 11.5248 12.345 11.4648 12.285C10.6948 11.515 9.91984 10.7475 9.15734 9.96998C9.04484 9.85498 8.94234 9.70498 8.90234 9.55248C8.83734 9.29998 8.94734 9.08498 9.16734 8.93748C9.36984 8.80248 9.63734 8.80748 9.83984 8.95248C9.91734 9.00748 9.98484 9.07748 10.0523 9.14248C10.8073 9.89498 11.5623 10.65 12.3123 11.405C12.3748 11.4675 12.4173 11.5475 12.4898 11.6475Z"
fill="#FFF"></path>
</svg>