<?xml version="1.0" encoding="utf-8"?>
<!-- Generator: Adobe Illustrator 25.2.0, SVG Export Plug-In . SVG Version: 6.00 Build 0)  -->
<svg version="1.1" id="Layer_1" xmlns="http://www.w3.org/2000/svg" xmlns:xlink="http://www.w3.org/1999/xlink" x="0px" y="0px"
	 viewBox="0 0 500 500" style="enable-background:new 0 0 500 500;" xml:space="preserve">
<style type="text/css">
	.st0{fill:#1FACE1;}
</style>
<path class="st0" d="M51.3,377.2c43.8,3,83.2-7.5,119-34.5c-37.6-3.5-62.3-22.4-76.2-57.2c12.3,0,23.8,0,35.3,0
	c0.1-0.4,0.1-0.9,0.2-1.3c-39.6-12.4-60.9-39-64-81.5c12,5.7,23.3,9.7,36.7,9.9c-20.7-16.7-33.5-36.8-35.6-62.7
	c-1.3-16.3,3-31.4,11.2-46.2c44.3,51.7,99.5,80.8,166.7,85.1c0-9.1-0.6-17.6,0.1-25.9c3.4-42.4,39.7-75,82.4-74.3
	c21.8,0.4,40.5,8.2,56.1,23.2c2,1.9,3.6,2.5,6.4,1.8c15.2-3.7,29.8-9,43.5-16.5c0.9-0.5,1.7-0.9,2.6-1.3c0.2-0.1,0.6,0.1,1.5,0.3
	c-6.1,18.3-17.4,32.2-33.4,42.8c0.3,0.5,0.5,1.1,0.8,1.6c14.2-3.9,28.4-7.9,43-11.9c-1.1,1.7-2.2,3.5-3.5,5.2
	c-9.3,12.9-20.3,24.1-33,33.6c-2.8,2.1-3.7,4.2-3.6,7.6c2.9,91.3-51.3,181.3-133.7,217.5c-74.2,32.6-147.5,28.2-218.2-12.2
	C54.1,379.2,52.7,378.2,51.3,377.2z"/>
</svg>
