<svg width="30" height="30" viewBox="0 0 30 30" fill="none" xmlns="http://www.w3.org/2000/svg">
<path d="M6.41372 14.2992L14.2993 6.41482L11.7141 3.82966L8.10005 7.44373C8.05695 7.48691 8.00576 7.52117 7.94941 7.54454C7.89305 7.56792 7.83264 7.57995 7.77163 7.57995C7.71063 7.57995 7.65021 7.56792 7.59386 7.54454C7.53751 7.52117 7.48631 7.48691 7.44322 7.44373L6.78638 6.78689C6.60474 6.60525 6.60474 6.31111 6.78638 6.13005L10.4004 2.51599L8.42935 0.544312C7.70337 -0.181665 6.52681 -0.181665 5.80083 0.544312L0.544388 5.80076C-0.181002 6.52673 -0.181588 7.7033 0.544388 8.42927L6.41372 14.2992V14.2992ZM29.1756 7.45544C30.2749 6.35623 30.2743 4.57439 29.1756 3.47517L26.5243 0.823804C25.4251 -0.275415 23.6426 -0.275415 22.5428 0.823804L19.8463 3.5197L26.4792 10.1525L29.1756 7.45544V7.45544ZM18.5204 4.84626L1.11802 22.2463L0.0188023 28.5416C-0.12944 29.3906 0.610013 30.1301 1.45962 29.9806L7.75552 28.8767L25.1532 11.4785L18.5204 4.84626ZM29.4557 21.5707L27.4846 19.5996L23.8706 23.2136C23.6889 23.3953 23.3948 23.3953 23.2137 23.2136L22.5569 22.5568C22.3758 22.3752 22.3758 22.081 22.5569 21.9L26.1709 18.2859L23.5846 15.6996L15.6991 23.584L21.5708 29.4551C22.2967 30.181 23.4733 30.181 24.1993 29.4551L29.4557 24.1992C30.1817 23.4732 30.1817 22.2967 29.4557 21.5707Z" fill="url(#paint0_linear_234_3)"/>
<defs>
<linearGradient id="paint0_linear_234_3" x1="30" y1="-4" x2="3.5" y2="41.5" gradientUnits="userSpaceOnUse">
<stop stop-color="#0094e2"/>
<stop offset="1" stop-color="#0094e2"/>
</linearGradient>
</defs>
</svg>
