<svg width="28" height="28" viewBox="0 0 28 28" fill="none" xmlns="http://www.w3.org/2000/svg">
<path d="M12.776 0.9375C13.552 0.578125 14.4479 0.578125 15.2239 0.9375L26.6093 6.19792C27.052 6.40104 27.3333 6.84375 27.3333 7.33333C27.3333 7.82292 27.052 8.26563 26.6093 8.46875L15.2239 13.7292C14.4479 14.0885 13.552 14.0885 12.776 13.7292L1.39058 8.46875C0.947876 8.26042 0.666626 7.81771 0.666626 7.33333C0.666626 6.84896 0.947876 6.40104 1.39058 6.19792L12.776 0.9375ZM23.8385 11.5833L26.6093 12.8646C27.052 13.0677 27.3333 13.5104 27.3333 14C27.3333 14.4896 27.052 14.9323 26.6093 15.1354L15.2239 20.3958C14.4479 20.7552 13.552 20.7552 12.776 20.3958L1.39058 15.1354C0.947876 14.9271 0.666626 14.4844 0.666626 14C0.666626 13.5156 0.947876 13.0677 1.39058 12.8646L4.16142 11.5833L12.0781 15.2396C13.2968 15.8021 14.7031 15.8021 15.9218 15.2396L23.8385 11.5833ZM15.9218 21.9062L23.8385 18.25L26.6093 19.5312C27.052 19.7344 27.3333 20.1771 27.3333 20.6667C27.3333 21.1562 27.052 21.599 26.6093 21.8021L15.2239 27.0625C14.4479 27.4219 13.552 27.4219 12.776 27.0625L1.39058 21.8021C0.947876 21.5937 0.666626 21.151 0.666626 20.6667C0.666626 20.1823 0.947876 19.7344 1.39058 19.5312L4.16142 18.25L12.0781 21.9062C13.2968 22.4688 14.7031 22.4688 15.9218 21.9062Z" fill="url(#paint0_linear_234_15)"/>
<defs>
<linearGradient id="paint0_linear_234_15" x1="27.3331" y1="-2.88663" x2="3.7815" y2="37.5552" gradientUnits="userSpaceOnUse">
<stop stop-color="#0094e2"/>
<stop offset="1" stop-color="#0094e2"/>
</linearGradient>
</defs>
</svg>
