<svg width="30" height="24" viewBox="0 0 30 24" fill="none" xmlns="http://www.w3.org/2000/svg">
<path d="M10.8333 2.83331C10.8333 1.4531 11.9531 0.333313 13.3333 0.333313H16.6667C18.0469 0.333313 19.1667 1.4531 19.1667 2.83331V6.16665C19.1667 7.54685 18.0469 8.66665 16.6667 8.66665H16.25V10.75H24.1667C25.776 10.75 27.0833 12.0573 27.0833 13.6666V15.3333H27.5C28.8802 15.3333 30 16.4531 30 17.8333V21.1666C30 22.5469 28.8802 23.6666 27.5 23.6666H24.1667C22.7865 23.6666 21.6667 22.5469 21.6667 21.1666V17.8333C21.6667 16.4531 22.7865 15.3333 24.1667 15.3333H24.5833V13.6666C24.5833 13.4375 24.3958 13.25 24.1667 13.25H16.25V15.3333H16.6667C18.0469 15.3333 19.1667 16.4531 19.1667 17.8333V21.1666C19.1667 22.5469 18.0469 23.6666 16.6667 23.6666H13.3333C11.9531 23.6666 10.8333 22.5469 10.8333 21.1666V17.8333C10.8333 16.4531 11.9531 15.3333 13.3333 15.3333H13.75V13.25H5.83333C5.60417 13.25 5.41667 13.4375 5.41667 13.6666V15.3333H5.83333C7.21354 15.3333 8.33333 16.4531 8.33333 17.8333V21.1666C8.33333 22.5469 7.21354 23.6666 5.83333 23.6666H2.5C1.11979 23.6666 0 22.5469 0 21.1666V17.8333C0 16.4531 1.11979 15.3333 2.5 15.3333H2.91667V13.6666C2.91667 12.0573 4.22396 10.75 5.83333 10.75H13.75V8.66665H13.3333C11.9531 8.66665 10.8333 7.54685 10.8333 6.16665V2.83331Z" fill="url(#paint0_linear_234_23)"/>
<defs>
<linearGradient id="paint0_linear_234_23" x1="29.9998" y1="-2.77726" x2="12.1868" y2="36.5459" gradientUnits="userSpaceOnUse">
<stop stop-color="#0094e2"/>
<stop offset="1" stop-color="#0094e2"/>
</linearGradient>
</defs>
</svg>
