<svg width="400" height="400" viewBox="0 0 400 400" fill="none" xmlns="http://www.w3.org/2000/svg">
<path d="M371.266 49.9097C411.175 86.8028 407.345 137.45 373.135 166.325C356.731 180.229 323.709 177.494 304.918 187.262C280.408 200.008 267.965 223.634 249.184 242.498C202.459 289.402 187.223 266.216 134.079 266.83C96.6898 267.259 61.1388 303.214 23.6679 278.522C-22.1117 248.396 6.23775 187.946 43.6273 164.621C86.5629 137.832 59.5237 74.9145 121.312 28.4621C182.073 -17.1792 311.997 -6.41483 371.266 49.9097Z" fill="#407BFF"/>
<path opacity="0.9" d="M371.266 49.9097C411.175 86.8028 407.345 137.45 373.135 166.325C356.731 180.229 323.709 177.494 304.918 187.262C280.408 200.008 267.965 223.634 249.184 242.498C202.459 289.402 187.223 266.216 134.079 266.83C96.6898 267.259 61.1388 303.214 23.6679 278.522C-22.1117 248.396 6.23775 187.946 43.6273 164.621C86.5629 137.832 59.5237 74.9145 121.312 28.4621C182.073 -17.1792 311.997 -6.41483 371.266 49.9097Z" fill="white"/>
<path d="M199.697 400C308.465 400 396.64 394.128 396.64 386.884C396.64 379.64 308.465 373.767 199.697 373.767C90.9282 373.767 2.75391 379.64 2.75391 386.884C2.75391 394.128 90.9282 400 199.697 400Z" fill="#F5F5F5"/>
<path d="M76.4666 103.395H76.2838C71.713 101.368 68.9806 99.3977 67.5586 97.0224C66.4454 97.263 65.2939 97.0841 64.2777 96.5125C63.0874 95.848 62.0999 94.7902 61.4438 93.4767C61.0989 93.7787 60.6927 93.9763 60.263 94.0512C59.8333 94.1262 59.3939 94.076 58.9857 93.9055C57.7339 93.3712 56.6656 92.3922 55.9384 91.113C55.4836 91.4995 54.9181 91.6773 54.3539 91.6112C51.3067 91.3331 47.2437 84.4736 46.9491 77.1738C46.9461 77.0197 46.995 76.8702 47.0857 76.756C47.1764 76.6417 47.302 76.5715 47.4367 76.5597C47.5034 76.5566 47.57 76.5685 47.6326 76.5948C47.6953 76.6211 47.7528 76.6612 47.8018 76.7128C47.8509 76.7645 47.8906 76.8267 47.9185 76.8958C47.9465 76.965 47.9622 77.0397 47.9648 77.1159C48.2493 84.0681 52.1396 90.244 54.4453 90.4525C54.6131 90.474 54.7829 90.4575 54.945 90.4038C55.1071 90.3501 55.2584 90.2603 55.3899 90.1397C54.5955 88.4877 54.0967 86.6721 53.9223 84.7984C53.7479 82.9247 53.9015 81.0301 54.3742 79.2247C55.2477 75.7486 56.0197 74.3813 56.9542 74.5899C58.7013 75.0881 58.4677 82.7008 57.5433 87.6716C57.4033 88.5682 57.1136 89.4257 56.6901 90.1976C57.2889 91.343 58.1928 92.2402 59.2701 92.7583C59.5572 92.883 59.8697 92.9111 60.1704 92.8392C60.471 92.7674 60.7473 92.5985 60.9664 92.3528C60.1741 90.1165 59.9506 87.0575 61.0883 83.1643C62.5103 78.0312 63.1198 77.8922 63.4346 77.7995C63.5531 77.7711 63.676 77.7798 63.7905 77.8247C63.905 77.8696 64.0066 77.9489 64.0847 78.0544C65.0294 79.2711 63.9019 87.2429 62.7236 91.1825C62.5856 91.6566 62.3944 92.1084 62.1548 92.5266C62.6998 93.7798 63.5876 94.7966 64.684 95.4234C65.4032 95.8223 66.2028 95.9943 66.9999 95.9216C66.9085 95.7015 66.8272 95.4813 66.746 95.2496C65.9435 92.7583 66.3397 89.8964 67.9547 86.4666C69.0212 84.2071 69.8948 83.1411 70.7074 83.1411C70.9231 83.1444 71.1334 83.2182 71.3135 83.3537C71.4935 83.4893 71.6357 83.6809 71.7231 83.9058C72.6068 85.7714 71.9669 91.9241 70.2198 94.9831C69.8107 95.6843 69.2419 96.2451 68.5743 96.6052C69.9354 98.6446 72.5256 100.441 76.7003 102.271C76.7629 102.297 76.8203 102.337 76.8692 102.388C76.9181 102.44 76.9574 102.502 76.9849 102.571C77.0123 102.64 77.0274 102.715 77.0291 102.791C77.0308 102.867 77.0192 102.942 76.9948 103.013C76.9554 103.134 76.8824 103.236 76.7871 103.305C76.6917 103.374 76.5792 103.406 76.4666 103.395ZM70.6972 84.3114C70.6972 84.3114 70.1182 84.3114 68.8384 87.0344C67.3656 90.1397 66.9898 92.7004 67.6906 94.8556C67.7756 95.1225 67.8774 95.3819 67.9953 95.6319C68.5455 95.3726 69.0133 94.9279 69.3361 94.3574C70.7582 91.8777 71.4387 86.7794 70.9105 84.7865C70.8394 84.3809 70.6972 84.3114 70.6972 84.3114ZM63.4042 79.4333C62.8543 80.7525 62.3992 82.1204 62.0431 83.5235C61.264 85.9552 61.1298 88.5948 61.6571 91.113L61.7485 90.8117C62.8152 87.139 63.3838 83.3019 63.4346 79.4333H63.4042ZM56.7206 75.7833C56.5479 75.9572 56.0502 76.6871 55.3493 79.5144C54.5204 82.6873 54.7819 86.1013 56.0807 89.0621C56.2891 88.544 56.4425 87.9994 56.5377 87.4399C57.6246 81.7507 57.3199 76.606 56.751 75.7833H56.7206Z" fill="#263238"/>
<path d="M115.085 164.135C113.461 164.153 111.863 163.677 110.453 162.756C110.337 162.676 110.253 162.548 110.219 162.399C110.185 162.249 110.203 162.091 110.271 161.956C110.304 161.891 110.349 161.834 110.402 161.789C110.455 161.743 110.515 161.71 110.58 161.692C110.644 161.674 110.711 161.67 110.776 161.682C110.842 161.693 110.905 161.72 110.961 161.76C114.588 164.181 119.27 162.489 120.235 160.717C120.305 160.606 120.354 160.48 120.38 160.346C120.407 160.213 120.409 160.075 120.387 159.94C118.533 160.062 116.697 159.466 115.177 158.249C112.586 156.406 112.383 155.85 112.404 155.41C112.409 155.283 112.443 155.161 112.504 155.055C112.565 154.949 112.649 154.863 112.749 154.807C113.765 154.228 118.346 156.626 120.255 158.063C120.484 158.237 120.696 158.439 120.885 158.666C121.636 158.472 122.312 158.009 122.815 157.345C123.098 156.965 123.303 156.518 123.414 156.036H123.211C121.586 156.221 119.961 155.421 118.224 153.591C117.025 152.339 116.568 151.47 116.721 150.787C116.767 150.594 116.86 150.421 116.99 150.288C117.119 150.155 117.28 150.066 117.452 150.033C118.854 149.628 122.327 151.32 123.739 153.092C124.054 153.478 124.278 153.948 124.389 154.46C125.72 153.753 127.122 152.142 128.777 149.512C128.816 149.449 128.865 149.396 128.922 149.355C128.978 149.314 129.041 149.286 129.108 149.273C129.174 149.261 129.241 149.263 129.307 149.28C129.372 149.297 129.434 149.329 129.489 149.373C129.597 149.464 129.671 149.599 129.694 149.75C129.716 149.902 129.686 150.057 129.61 150.184C127.691 153.243 126.086 154.981 124.481 155.688C124.398 156.544 124.09 157.352 123.597 158.005C123.012 158.781 122.243 159.348 121.383 159.639C121.431 159.916 121.431 160.2 121.382 160.477C121.333 160.753 121.237 161.016 121.098 161.25C120.245 162.907 117.787 164.135 115.085 164.135ZM114.181 156.093C114.527 156.383 115.014 156.765 115.715 157.252C116.807 158.093 118.062 158.618 119.372 158.782C117.737 157.663 115.995 156.761 114.181 156.093ZM117.726 151.169C118.018 151.796 118.423 152.345 118.915 152.78C120.418 154.367 121.789 155.097 123.11 154.912H123.435C123.362 154.552 123.208 154.22 122.988 153.95C121.566 152.119 118.437 150.984 117.726 151.169Z" fill="#263238"/>
<path d="M128.533 162.547L112.708 165.826L98.3353 76.3511L67.802 82.6776L18.0305 183.485L23.3733 216.751L87.2129 203.53L91.5806 230.737L122.114 224.387L117.746 197.181L133.572 193.901L128.533 162.547ZM48.4419 179.198L74.8513 126.395L82.2154 172.211L48.4419 179.198Z" fill="#407BFF"/>
<path d="M255.999 70.2797C255.519 64.655 254.427 59.1203 252.749 53.803C251.023 48.7095 248.625 43.9464 245.639 39.6784C242.103 34.7129 237.713 30.6273 232.739 27.6742C227.321 24.2831 220.137 21.9232 211.185 20.5945C192.596 17.8291 178.112 21.591 167.731 31.8803C157.35 42.1696 150.511 61.8675 147.213 90.9741C145.896 101.852 145.556 112.855 146.197 123.812C146.874 133.854 148.493 141.938 151.052 148.063C154.31 156.324 159.448 163.438 165.933 168.665C172.346 173.802 181.149 177.197 192.343 178.85C212.238 181.809 226.99 177.448 236.599 165.768C246.207 154.089 252.573 134.352 255.695 106.559C257.082 94.5243 257.185 82.3422 255.999 70.2797Z" fill="#407BFF"/>
<path d="M201.494 166.95C199.046 166.858 196.416 166.603 193.765 166.209C184.46 164.83 177.269 162.142 172.373 158.225C167.49 154.292 163.63 148.928 161.2 142.699L161.149 142.571C159.199 137.936 157.919 131.274 157.36 122.873C156.768 112.783 157.082 102.649 158.295 92.6311C161.921 60.5118 169.407 47.1057 175.044 41.5207C181.626 35.0088 190.514 32.0657 202.195 32.5292C204.592 32.6219 207.132 32.8652 209.742 33.2476C217.238 34.4063 223.181 36.2602 227.386 38.8789C231.019 41.0135 234.236 43.9658 236.842 47.5576C239.122 50.8015 240.955 54.4237 242.277 58.2987C243.626 62.6196 244.499 67.1151 244.877 71.6818C245.96 82.7471 245.861 93.9216 244.582 104.96C241.769 129.918 236.324 147.461 228.412 157.101C222.541 164.239 213.734 167.53 201.484 166.997L201.494 166.95Z" fill="#263238"/>
<path d="M221.373 70.6155L221.505 66.224L219.138 65.3434C219.037 63.8581 218.827 62.3851 218.508 60.9403L220.54 59.2486L219.179 55.1236L216.7 55.3553C216.117 54.0296 215.438 52.7621 214.669 51.5664L215.949 49.1215L213.308 45.9119L211.093 47.2097C210.103 46.2379 209.043 45.362 207.924 44.591L208.28 41.7869L204.765 39.9678L203.16 42.123C201.918 41.6635 200.644 41.3225 199.351 41.1033L198.752 38.3572L194.892 38.2065L194.13 40.8947C192.829 41.0136 191.538 41.2538 190.271 41.6131L188.777 39.2957L185.161 40.8368L185.365 43.664C184.203 44.3294 183.092 45.1046 182.043 45.9814L179.91 44.5099L177.086 47.5109L178.224 50.0485C177.37 51.178 176.605 52.3916 175.938 53.6752L173.48 53.2465L171.875 57.2556L173.775 59.0864C173.363 60.505 173.063 61.9631 172.881 63.4431L170.464 64.1383L170.332 68.5182L172.698 69.3988C172.797 70.8882 173.008 72.3651 173.328 73.8135L171.296 75.4936L172.658 79.6186L175.136 79.3868C175.713 80.7163 176.393 81.9843 177.168 83.1758L175.878 85.6207L178.518 88.8303L180.733 87.5441C181.724 88.5121 182.784 89.3842 183.902 90.1512L183.536 92.9553L187.051 94.7744L188.666 92.6308C189.912 93.0877 191.189 93.4249 192.485 93.6389L193.084 96.3966L196.934 96.5472L197.696 93.8474C199.001 93.7343 200.296 93.494 201.566 93.1291L203.039 95.4465L206.655 93.9054L206.462 91.0897C207.619 90.4158 208.73 89.6411 209.783 88.7723L211.916 90.2323L214.74 87.2313L213.612 84.6937C214.463 83.568 215.225 82.3582 215.888 81.0786L218.346 81.4957L219.951 77.4866L218.061 75.6558C218.466 74.2393 218.761 72.7855 218.945 71.3107L221.373 70.6155ZM195.37 84.8327C192.361 84.7074 189.453 83.5681 187.011 81.5587C184.57 79.5494 182.705 76.76 181.652 73.5427C180.599 70.3254 180.405 66.8243 181.095 63.4815C181.785 60.1387 183.327 57.1038 185.528 54.7601C187.728 52.4164 190.488 50.8688 193.459 50.3127C196.429 49.7565 199.478 50.2168 202.22 51.6354C204.961 53.054 207.273 55.3673 208.863 58.2834C210.453 61.1994 211.251 64.5875 211.154 68.02C211.09 70.3078 210.63 72.5587 209.801 74.6433C208.973 76.728 207.791 78.6053 206.324 80.1675C204.858 81.7297 203.135 82.946 201.255 83.7466C199.375 84.5472 197.375 84.9163 195.37 84.8327Z" fill="#407BFF"/>
<path opacity="0.3" d="M237.401 151.238L237.685 148.272L236.121 147.553C236.118 146.544 236.044 145.536 235.897 144.541L237.309 143.51L236.588 140.648H234.902C234.569 139.717 234.164 138.821 233.693 137.971L234.648 136.395L233.023 134.078L231.469 134.819C230.839 134.109 230.16 133.458 229.437 132.873L229.813 130.996L227.528 129.559L226.329 130.938C225.513 130.554 224.67 130.248 223.81 130.022L223.526 128.134L220.935 127.798L220.296 129.582C219.413 129.587 218.533 129.68 217.665 129.86L216.761 128.215L214.252 129.061V130.984C213.436 131.369 212.651 131.834 211.905 132.374L210.524 131.216L208.493 133.07L209.143 134.843C208.523 135.562 207.956 136.337 207.446 137.16L205.801 136.743L204.552 139.35L205.75 140.706C205.41 141.639 205.141 142.604 204.948 143.591L203.282 143.904L203.008 146.858L204.562 147.6C204.562 148.602 204.641 149.603 204.795 150.589L203.363 151.621L204.094 154.483H205.791C206.13 155.409 206.538 156.3 207.01 157.148L205.994 158.723L207.619 161.041L209.193 160.288C209.819 161.001 210.498 161.648 211.225 162.223L210.869 164.135L213.155 165.56L214.343 164.204C215.161 164.578 216.003 164.877 216.862 165.096L217.157 166.997L219.747 167.321L220.377 165.548C221.275 165.547 222.172 165.461 223.058 165.293L223.962 166.927L226.461 166.093V164.169C227.278 163.778 228.066 163.313 228.818 162.779L230.179 163.938L232.21 162.072L231.55 160.299C232.176 159.581 232.75 158.806 233.267 157.982L234.902 158.399L236.161 155.792L234.963 154.448C235.29 153.515 235.551 152.554 235.745 151.574L237.401 151.238ZM224.328 150.079C223.898 150.977 223.245 151.708 222.45 152.182C221.656 152.655 220.757 152.849 219.865 152.739C218.974 152.629 218.132 152.22 217.445 151.564C216.758 150.907 216.256 150.033 216.005 149.052C215.753 148.071 215.762 147.027 216.031 146.051C216.3 145.076 216.816 144.214 217.515 143.573C218.213 142.933 219.063 142.543 219.955 142.453C220.848 142.364 221.744 142.578 222.53 143.069C223.581 143.73 224.36 144.838 224.697 146.151C225.034 147.465 224.901 148.877 224.328 150.079Z" fill="#407BFF"/>
<path d="M251.794 101.159L248.747 98.7721C248.447 97.5313 248.039 96.3279 247.528 95.1801L248.3 91.704L243.912 86.3392L240.865 86.9881C239.898 86.3316 238.877 85.7844 237.817 85.3543L235.938 81.7392L229.509 81.4958L227.416 84.972C226.327 85.3088 225.272 85.7749 224.267 86.3624L221.22 85.4702L216.517 90.4874L217.086 93.9635C216.502 95.0612 216.022 96.2264 215.654 97.4396L212.495 99.5832L212.271 106.918L215.319 109.305C215.614 110.555 216.023 111.766 216.538 112.92L215.766 116.396L220.154 121.761L223.201 121.124C224.168 121.779 225.189 122.326 226.248 122.757L228.117 126.361L234.557 126.616L236.639 123.14C237.737 122.8 238.803 122.334 239.818 121.749L242.866 122.63L247.569 117.624L247.01 114.148C247.587 113.046 248.067 111.882 248.442 110.672L251.601 108.528L251.794 101.159ZM231.753 112.306C230.324 112.25 228.941 111.711 227.78 110.759C226.618 109.806 225.73 108.482 225.229 106.954C224.727 105.426 224.634 103.762 224.961 102.174C225.288 100.585 226.021 99.1432 227.067 98.0297C228.112 96.9163 229.424 96.1816 230.836 95.9186C232.248 95.6556 233.696 95.876 234.998 96.552C236.3 97.2281 237.397 98.3294 238.15 99.7166C238.903 101.104 239.279 102.715 239.229 104.345C239.161 106.531 238.335 108.596 236.934 110.088C235.532 111.58 233.669 112.378 231.753 112.306Z" fill="white"/>
<path d="M273.846 42.61L274.374 41.1616C274.734 40.9308 275.074 40.6632 275.39 40.3621H276.568L277.95 38.0447L277.503 36.8049C277.674 36.392 277.81 35.9613 277.909 35.5188L278.925 34.4527L278.498 31.7298L277.219 31.1273C277.018 30.7164 276.783 30.3284 276.518 29.9686V28.6245L274.537 27.0486L273.44 27.5701C273.039 27.4089 272.623 27.3001 272.201 27.2456L271.266 26.0869L268.889 26.5736L268.351 28.0335C267.974 28.2564 267.617 28.5203 267.285 28.8215H266.116L264.735 31.1389L265.182 32.3787C265.045 32.8377 264.95 33.3113 264.898 33.7923L263.882 34.8699L264.308 37.5812L265.588 38.1838C265.782 38.5967 266.014 38.9851 266.279 39.3425V40.675L268.31 42.2508L269.397 41.741C269.804 41.8917 270.222 41.9964 270.647 42.0538L271.581 43.2125L273.846 42.61ZM268.768 35.1016C268.672 34.497 268.735 33.8736 268.95 33.31C269.164 32.7465 269.521 32.2684 269.974 31.936C270.427 31.6037 270.956 31.4321 271.494 31.443C272.033 31.4539 272.557 31.6468 272.999 31.9973C273.441 32.3478 273.783 32.8401 273.98 33.412C274.177 33.9838 274.221 34.6095 274.106 35.2098C273.991 35.8101 273.723 36.3581 273.335 36.7843C272.947 37.2106 272.457 37.496 271.927 37.6044C271.217 37.7464 270.487 37.5631 269.896 37.0944C269.304 36.6257 268.899 35.9095 268.768 35.1016Z" fill="#407BFF"/>
<path d="M246.025 34.9278L245.243 34.1746C246.919 31.8032 248.99 29.8341 251.337 28.3811L251.815 29.4008C249.583 30.787 247.614 32.6658 246.025 34.9278Z" fill="#407BFF"/>
<path d="M254.13 28.3347L253.734 27.2687C257.485 25.4093 261.587 24.66 265.659 25.0903L265.557 26.249C261.655 25.8294 257.723 26.5471 254.13 28.3347Z" fill="#407BFF"/>
<path d="M252.211 36.353L251.378 35.7042C253.825 31.9345 257.387 29.3041 261.403 28.3L261.596 29.4588C257.843 30.3939 254.51 32.8417 252.211 36.353Z" fill="#407BFF"/>
<path d="M184.806 147.913C184.667 147.908 184.536 147.842 184.44 147.728L182.317 145.225C181.235 145.113 180.164 144.888 179.118 144.553L175.796 146.221C175.723 146.267 175.641 146.291 175.557 146.291C175.474 146.291 175.392 146.267 175.319 146.221L169.752 142.015C169.681 141.961 169.622 141.887 169.583 141.8C169.544 141.712 169.525 141.615 169.529 141.517V137.392C168.85 136.423 168.251 135.383 167.741 134.287L164.887 133.035C164.807 133 164.736 132.942 164.681 132.867C164.626 132.792 164.589 132.703 164.572 132.607L163.252 125.145C163.234 125.049 163.238 124.95 163.263 124.857C163.288 124.764 163.333 124.68 163.394 124.612L165.588 122.19C165.693 120.956 165.89 119.735 166.177 118.54L164.714 114.751C164.674 114.668 164.653 114.574 164.653 114.479C164.653 114.384 164.674 114.29 164.714 114.206L168.402 107.857C168.447 107.773 168.512 107.705 168.589 107.66C168.666 107.615 168.752 107.595 168.838 107.602L172.454 107.66C173.302 106.881 174.213 106.198 175.177 105.62L176.284 102.364C176.313 102.274 176.362 102.194 176.426 102.131C176.49 102.068 176.567 102.025 176.649 102.005L183.191 100.499C183.274 100.478 183.361 100.482 183.443 100.51C183.525 100.539 183.599 100.591 183.658 100.661L185.781 103.164C186.866 103.277 187.941 103.502 188.991 103.836L192.302 102.167C192.377 102.122 192.461 102.098 192.546 102.098C192.631 102.098 192.715 102.122 192.79 102.167L198.346 106.374C198.416 106.43 198.474 106.504 198.515 106.591C198.555 106.677 198.577 106.774 198.579 106.872L198.518 110.997C199.201 111.966 199.803 113.006 200.316 114.102L203.16 115.365C203.24 115.398 203.31 115.454 203.365 115.527C203.42 115.6 203.458 115.688 203.475 115.782L204.806 123.244C204.822 123.34 204.817 123.438 204.792 123.531C204.767 123.623 204.723 123.708 204.664 123.777L202.459 126.211C202.358 127.441 202.161 128.658 201.87 129.849L203.333 133.638C203.373 133.723 203.394 133.819 203.394 133.916C203.394 134.013 203.373 134.108 203.333 134.194L199.697 140.486C199.649 140.565 199.585 140.629 199.511 140.673C199.437 140.718 199.354 140.741 199.27 140.741L195.644 140.683C194.793 141.451 193.886 142.133 192.932 142.722L191.825 145.978C191.795 146.07 191.744 146.151 191.678 146.214C191.612 146.277 191.533 146.319 191.449 146.337L184.907 147.913H184.806ZM179.087 143.278C179.134 143.268 179.182 143.268 179.229 143.278C180.326 143.643 181.453 143.88 182.592 143.985C182.713 144.001 182.827 144.062 182.917 144.159L184.948 146.592L190.941 145.213L192.018 142.038C192.068 141.91 192.153 141.804 192.261 141.737C193.276 141.139 194.233 140.42 195.116 139.594C195.209 139.504 195.329 139.458 195.451 139.466L198.975 139.524L202.348 133.731L200.926 130.046C200.885 129.919 200.885 129.779 200.926 129.652C201.24 128.399 201.447 127.115 201.545 125.817C201.556 125.676 201.61 125.545 201.698 125.446L203.831 123.128L202.622 116.292L199.849 115.064C199.73 115.014 199.632 114.915 199.575 114.786C199.048 113.63 198.418 112.539 197.696 111.53C197.623 111.424 197.584 111.293 197.584 111.159V107.127L192.505 103.28L189.285 104.902C189.17 104.949 189.045 104.949 188.93 104.902C187.829 104.539 186.699 104.303 185.557 104.195C185.436 104.179 185.322 104.118 185.232 104.021L183.201 101.588L177.208 102.979L176.142 106.2C176.099 106.333 176.016 106.444 175.908 106.513C174.889 107.11 173.929 107.828 173.044 108.656C173 108.701 172.948 108.736 172.892 108.758C172.837 108.78 172.777 108.789 172.718 108.784L169.194 108.726L165.811 114.519L167.233 118.204C167.266 118.282 167.283 118.367 167.283 118.453C167.283 118.539 167.266 118.624 167.233 118.702C166.933 119.925 166.735 121.179 166.644 122.445C166.635 122.585 166.581 122.717 166.492 122.816L164.359 125.133L165.578 131.969L168.341 133.198C168.464 133.256 168.565 133.363 168.625 133.499C169.149 134.647 169.775 135.73 170.494 136.732C170.569 136.836 170.609 136.967 170.606 137.102V141.135L175.684 144.982L178.915 143.359C178.967 143.321 179.026 143.293 179.087 143.278ZM184.074 139.524C181.63 139.522 179.231 138.763 177.134 137.33C175.036 135.897 173.319 133.842 172.163 131.384C171.008 128.926 170.458 126.157 170.572 123.371C170.685 120.585 171.459 117.887 172.81 115.562C174.102 113.332 175.879 111.523 177.968 110.311C180.057 109.099 182.386 108.527 184.727 108.649C187.068 108.772 189.341 109.586 191.323 111.011C193.306 112.436 194.93 114.423 196.038 116.779C197.145 119.135 197.698 121.778 197.641 124.451C197.585 127.123 196.921 129.733 195.716 132.025C194.51 134.318 192.804 136.214 190.763 137.528C188.723 138.842 186.418 139.53 184.074 139.524ZM173.663 116.199C172.296 118.553 171.571 121.315 171.58 124.138C171.589 126.962 172.332 129.718 173.714 132.06C175.097 134.401 177.057 136.223 179.347 137.294C181.636 138.365 184.153 138.637 186.579 138.077C189.004 137.516 191.23 136.148 192.973 134.145C194.717 132.142 195.901 129.594 196.376 126.823C196.85 124.052 196.594 121.183 195.639 118.579C194.685 115.974 193.074 113.751 191.012 112.19C189.644 111.146 188.109 110.421 186.494 110.057C184.88 109.694 183.218 109.698 181.605 110.071C179.992 110.444 178.46 111.177 177.097 112.229C175.734 113.281 174.567 114.63 173.663 116.199Z" fill="white"/>
<path d="M378.295 172.999L362.348 170.542L372.891 80.3835L342.134 75.656L267.528 154.007L263.607 187.529L327.894 197.424L324.684 224.851L355.441 229.578L358.65 202.163L374.598 204.62L378.295 172.999ZM297.624 160.577L336.995 119.64L331.591 165.803L297.624 160.577Z" fill="#407BFF"/>
<path d="M346.096 228.721H345.964C345.832 228.692 345.716 228.606 345.64 228.48C345.563 228.354 345.534 228.199 345.558 228.049L369.326 79.8042C369.353 79.6553 369.43 79.524 369.539 79.4377C369.649 79.3514 369.784 79.3166 369.915 79.3407C370.047 79.3689 370.164 79.4553 370.24 79.5812C370.316 79.7071 370.345 79.8622 370.322 80.0127L346.604 228.246C346.581 228.38 346.517 228.5 346.425 228.587C346.332 228.673 346.216 228.721 346.096 228.721Z" fill="#263238"/>
<path d="M367.122 82.2956C367.114 82.5476 367.018 82.7856 366.856 82.9573C366.694 83.1289 366.479 83.2202 366.258 83.211C366.037 83.2017 365.829 83.0928 365.678 82.9081C365.528 82.7234 365.448 82.4781 365.456 82.2261C365.464 81.9741 365.559 81.7361 365.721 81.5644C365.883 81.3927 366.098 81.3015 366.319 81.3107C366.54 81.3199 366.749 81.4289 366.899 81.6136C367.05 81.7983 367.13 82.0436 367.122 82.2956Z" fill="#263238"/>
<path d="M363.739 102.341C363.733 102.529 363.679 102.71 363.582 102.862C363.486 103.015 363.352 103.131 363.197 103.196C363.043 103.262 362.875 103.273 362.715 103.23C362.554 103.187 362.409 103.09 362.297 102.952C362.185 102.815 362.111 102.642 362.085 102.457C362.059 102.271 362.081 102.081 362.15 101.91C362.218 101.74 362.33 101.596 362.47 101.497C362.61 101.398 362.772 101.349 362.937 101.356C363.046 101.361 363.154 101.39 363.254 101.442C363.353 101.493 363.443 101.567 363.517 101.659C363.592 101.75 363.65 101.858 363.688 101.975C363.726 102.092 363.744 102.216 363.739 102.341Z" fill="#263238"/>
<path d="M360.357 122.421C360.353 122.546 360.328 122.669 360.282 122.782C360.237 122.896 360.172 122.998 360.092 123.083C360.012 123.168 359.918 123.234 359.815 123.278C359.712 123.321 359.603 123.341 359.494 123.336C359.385 123.333 359.278 123.306 359.178 123.255C359.079 123.204 358.989 123.132 358.914 123.041C358.84 122.951 358.782 122.844 358.743 122.728C358.705 122.611 358.687 122.487 358.691 122.363C358.694 122.237 358.719 122.113 358.764 121.999C358.809 121.884 358.873 121.78 358.953 121.694C359.034 121.608 359.128 121.54 359.231 121.496C359.335 121.452 359.445 121.432 359.555 121.436C359.775 121.448 359.982 121.558 360.132 121.742C360.282 121.926 360.363 122.17 360.357 122.421Z" fill="#263238"/>
<path d="M353.693 143.278C353.671 143.51 353.574 143.725 353.421 143.881C353.268 144.037 353.071 144.123 352.866 144.123C352.661 144.123 352.463 144.037 352.31 143.881C352.157 143.725 352.06 143.51 352.038 143.278C352.025 143.145 352.037 143.011 352.072 142.884C352.108 142.756 352.167 142.639 352.245 142.54C352.323 142.44 352.419 142.36 352.526 142.306C352.633 142.251 352.749 142.223 352.866 142.223C352.983 142.223 353.099 142.251 353.205 142.306C353.312 142.36 353.408 142.44 353.486 142.54C353.564 142.639 353.623 142.756 353.659 142.884C353.695 143.011 353.706 143.145 353.693 143.278Z" fill="#263238"/>
<path d="M353.582 162.477C353.579 162.603 353.555 162.726 353.51 162.84C353.465 162.955 353.4 163.058 353.32 163.143C353.239 163.228 353.145 163.294 353.041 163.337C352.938 163.38 352.828 163.399 352.719 163.393C352.554 163.386 352.395 163.323 352.262 163.213C352.128 163.103 352.026 162.95 351.969 162.774C351.912 162.598 351.901 162.407 351.939 162.224C351.977 162.041 352.062 161.875 352.183 161.747C352.303 161.619 352.454 161.535 352.617 161.505C352.78 161.475 352.946 161.501 353.096 161.579C353.246 161.657 353.372 161.784 353.458 161.944C353.545 162.104 353.588 162.29 353.582 162.477Z" fill="#263238"/>
<path d="M350.2 182.523C350.196 182.712 350.142 182.894 350.047 183.048C349.952 183.202 349.819 183.32 349.664 183.387C349.51 183.454 349.342 183.468 349.181 183.426C349.02 183.383 348.873 183.288 348.76 183.15C348.647 183.013 348.572 182.841 348.545 182.655C348.518 182.469 348.54 182.278 348.609 182.107C348.677 181.935 348.788 181.791 348.929 181.692C349.069 181.592 349.232 181.543 349.397 181.55C349.616 181.559 349.824 181.666 349.974 181.849C350.124 182.031 350.205 182.273 350.2 182.523Z" fill="#263238"/>
<path d="M346.817 202.569C346.809 202.822 346.714 203.061 346.553 203.235C346.391 203.408 346.176 203.502 345.954 203.496C345.844 203.491 345.737 203.462 345.637 203.41C345.538 203.358 345.448 203.284 345.374 203.193C345.299 203.101 345.241 202.994 345.203 202.877C345.165 202.76 345.147 202.635 345.151 202.511C345.155 202.386 345.18 202.263 345.225 202.149C345.269 202.035 345.334 201.933 345.413 201.847C345.493 201.762 345.587 201.695 345.689 201.651C345.791 201.607 345.9 201.586 346.01 201.59C346.119 201.593 346.227 201.622 346.327 201.673C346.426 201.724 346.516 201.797 346.591 201.888C346.666 201.979 346.725 202.086 346.764 202.203C346.802 202.32 346.821 202.444 346.817 202.569Z" fill="#263238"/>
<path d="M343.425 222.626C343.418 222.814 343.364 222.995 343.267 223.148C343.171 223.3 343.037 223.416 342.882 223.481C342.728 223.547 342.56 223.559 342.4 223.515C342.24 223.472 342.094 223.375 341.982 223.238C341.87 223.1 341.796 222.928 341.77 222.742C341.744 222.557 341.766 222.366 341.835 222.196C341.903 222.025 342.015 221.881 342.155 221.782C342.295 221.684 342.457 221.634 342.622 221.641C342.732 221.644 342.84 221.672 342.94 221.724C343.04 221.775 343.131 221.849 343.205 221.941C343.28 222.032 343.338 222.14 343.376 222.258C343.413 222.376 343.43 222.501 343.425 222.626Z" fill="#263238"/>
<path d="M352.861 143.8C352.747 143.8 352.636 143.755 352.547 143.672C352.458 143.59 352.397 143.475 352.373 143.348C352.358 143.273 352.357 143.196 352.368 143.12C352.379 143.045 352.404 142.973 352.439 142.908C352.475 142.844 352.522 142.788 352.577 142.744C352.632 142.7 352.694 142.669 352.759 142.652L355.278 142.038C355.345 142.021 355.413 142.02 355.48 142.033C355.546 142.047 355.61 142.076 355.667 142.118C355.723 142.16 355.772 142.215 355.81 142.278C355.848 142.342 355.875 142.414 355.888 142.49C355.901 142.565 355.902 142.642 355.889 142.716C355.876 142.791 355.851 142.862 355.814 142.926C355.777 142.989 355.73 143.044 355.675 143.086C355.619 143.129 355.557 143.159 355.492 143.174L352.973 143.788L352.861 143.8Z" fill="#263238"/>
<path d="M361.282 133.128C360.083 136.673 359.066 140.294 358.234 143.973C357.472 148.063 357.432 157.217 357.432 157.217" fill="#263238"/>
<path d="M357.432 157.797C357.297 157.791 357.169 157.726 357.075 157.616C356.98 157.506 356.926 157.359 356.924 157.206C356.924 156.835 356.985 147.936 357.747 143.857C358.573 140.146 359.591 136.494 360.794 132.919C360.814 132.843 360.848 132.772 360.893 132.712C360.939 132.651 360.995 132.602 361.057 132.567C361.12 132.532 361.189 132.512 361.258 132.509C361.328 132.505 361.398 132.519 361.463 132.547C361.528 132.576 361.587 132.62 361.637 132.676C361.687 132.732 361.726 132.799 361.752 132.873C361.777 132.947 361.79 133.027 361.787 133.106C361.785 133.186 361.768 133.264 361.738 133.336C360.541 136.854 359.524 140.448 358.691 144.101C357.95 148.087 357.899 157.124 357.889 157.217C357.889 157.361 357.843 157.5 357.758 157.608C357.674 157.715 357.557 157.782 357.432 157.797Z" fill="#263238"/>
<path d="M171.713 257.804C173.125 231.849 170.535 184.655 213.308 190.912C259.148 197.598 246.035 258.754 246.035 258.754L171.713 257.804Z" fill="#263238"/>
<path d="M201.23 242.208C211.541 242.208 219.9 232.673 219.9 220.911C219.9 209.149 211.541 199.614 201.23 199.614C190.92 199.614 182.561 209.149 182.561 220.911C182.561 232.673 190.92 242.208 201.23 242.208Z" fill="white"/>
<path d="M203.688 199.649C194.841 197.934 185.405 205.361 184.46 212.893L219.514 216.578C218.275 207.992 210.697 201.016 203.688 199.649Z" fill="#263238"/>
<path d="M215.522 220.378C215.268 225.951 212.606 230.319 209.579 230.134C206.553 229.949 204.298 225.302 204.501 219.706C204.704 214.109 207.416 209.764 210.443 209.949C213.47 210.135 215.765 214.816 215.522 220.378Z" fill="#263238"/>
<path d="M201.23 243.367C197.337 243.367 193.531 242.05 190.294 239.582C187.056 237.115 184.533 233.608 183.043 229.504C181.553 225.401 181.164 220.886 181.923 216.53C182.683 212.174 184.558 208.173 187.311 205.032C190.064 201.892 193.571 199.753 197.39 198.887C201.208 198.02 205.166 198.465 208.763 200.165C212.36 201.864 215.435 204.742 217.598 208.435C219.761 212.128 220.915 216.47 220.915 220.911C220.91 226.865 218.834 232.573 215.144 236.783C211.453 240.993 206.449 243.361 201.23 243.367ZM201.23 200.784C197.738 200.784 194.325 201.966 191.421 204.179C188.518 206.392 186.255 209.538 184.919 213.219C183.583 216.899 183.234 220.949 183.916 224.856C184.598 228.762 186.281 232.351 188.751 235.167C191.221 237.982 194.367 239.9 197.792 240.675C201.217 241.451 204.767 241.051 207.993 239.525C211.218 237.999 213.975 235.416 215.913 232.102C217.852 228.789 218.886 224.894 218.884 220.911C218.878 215.573 217.016 210.455 213.707 206.682C210.397 202.908 205.91 200.787 201.23 200.784Z" fill="#407BFF"/>
<path opacity="0.3" d="M240.824 257.155H240.702C240.637 257.139 240.575 257.108 240.521 257.064C240.466 257.02 240.42 256.964 240.385 256.899C240.35 256.834 240.327 256.762 240.317 256.686C240.307 256.611 240.31 256.534 240.327 256.46C240.327 256.309 243.597 240.597 240.235 224.712C240.203 224.558 240.225 224.396 240.298 224.261C240.37 224.127 240.486 224.03 240.621 223.993C240.756 223.956 240.898 223.982 241.016 224.065C241.134 224.147 241.219 224.28 241.251 224.434C244.674 240.655 241.373 256.576 241.342 256.727C241.312 256.855 241.244 256.968 241.15 257.046C241.056 257.124 240.941 257.163 240.824 257.155Z" fill="white"/>
<path opacity="0.3" d="M237.99 215.998C237.893 215.997 237.798 215.964 237.715 215.905C237.633 215.846 237.566 215.762 237.523 215.662C236.261 212.479 234.642 209.495 232.708 206.786C232.624 206.668 232.584 206.516 232.598 206.364C232.611 206.212 232.676 206.072 232.779 205.975C232.831 205.926 232.891 205.889 232.956 205.866C233.02 205.843 233.088 205.836 233.155 205.843C233.222 205.851 233.287 205.873 233.347 205.91C233.406 205.947 233.458 205.996 233.501 206.056C235.482 208.844 237.145 211.908 238.447 215.175C238.476 215.243 238.493 215.318 238.496 215.393C238.5 215.469 238.49 215.545 238.467 215.616C238.444 215.688 238.409 215.753 238.364 215.809C238.319 215.864 238.264 215.909 238.204 215.94C238.137 215.975 238.064 215.995 237.99 215.998Z" fill="white"/>
<path d="M76.5175 379.561H76.1416C74.7947 379.518 73.5179 378.866 72.5921 377.749C71.6663 376.632 71.1674 375.141 71.2051 373.605C71.2428 372.068 71.8141 370.612 72.7932 369.556C73.7723 368.5 75.0791 367.931 76.426 367.974H76.5175C79.453 367.974 86.5124 363.907 101.281 337.349C101.673 336.644 102.194 336.043 102.809 335.589C103.423 335.135 104.117 334.838 104.841 334.718C105.566 334.598 106.304 334.658 107.007 334.894C107.709 335.131 108.358 335.537 108.91 336.086C120.508 347.46 133.157 357.36 146.634 365.61C147.258 365.933 147.818 366.398 148.28 366.975C148.742 367.551 149.098 368.229 149.324 368.967C149.551 369.704 149.645 370.486 149.599 371.266C149.554 372.046 149.371 372.808 149.061 373.505C148.751 374.202 148.321 374.82 147.796 375.322C147.271 375.825 146.662 376.2 146.006 376.427C145.351 376.654 144.662 376.728 143.981 376.643C143.299 376.558 142.64 376.317 142.043 375.934C129.518 368.341 117.678 359.361 106.695 349.122C94.3133 370.384 85.131 379.561 76.5175 379.561Z" fill="#263238"/>
<path d="M107.944 335.043H107.508C106.709 334.911 105.99 334.424 105.506 333.687C105.022 332.951 104.814 332.026 104.928 331.115C105.649 325.321 104.755 303.735 98.3456 286.934C98.0613 286.191 98.0133 285.359 98.2099 284.58C98.4065 283.802 98.8353 283.126 99.4223 282.67C113.338 271.859 142.977 270.561 144.237 270.515C144.637 270.5 145.036 270.574 145.411 270.735C145.786 270.896 146.129 271.139 146.421 271.451C146.714 271.763 146.949 272.138 147.115 272.554C147.28 272.97 147.372 273.419 147.386 273.875C147.399 274.332 147.333 274.787 147.193 275.214C147.052 275.642 146.839 276.033 146.565 276.367C146.292 276.701 145.963 276.969 145.598 277.158C145.234 277.347 144.84 277.452 144.44 277.467C144.166 277.467 118.254 278.626 104.948 286.968C110.616 303.7 111.906 324.545 110.961 332.088C110.852 332.911 110.487 333.662 109.933 334.204C109.38 334.747 108.674 335.044 107.944 335.043Z" fill="#263238"/>
<path d="M113.064 330.547C111.032 325.09 101.891 325.704 96.5376 330.385C93.6732 332.876 89.793 340.396 89.4274 343.131C89.3054 343.78 89.3236 344.454 89.4805 345.094C89.6374 345.734 89.9282 346.321 90.3279 346.804C90.7276 347.288 91.2243 347.653 91.7751 347.869C92.326 348.085 92.9146 348.145 93.4903 348.044C96.9947 347.696 101.799 341.891 101.799 341.891C98.5995 345.471 102.734 347.997 108.909 342.818C112.282 339.933 115.329 336.653 113.064 330.547Z" fill="#407BFF"/>
<path d="M287.772 259.333C287.725 259.345 287.676 259.345 287.629 259.333C287.565 259.314 287.504 259.279 287.451 259.232C287.399 259.184 287.355 259.125 287.323 259.058C287.29 258.991 287.27 258.917 287.264 258.841C287.257 258.765 287.264 258.688 287.284 258.615C288.635 253.239 290.108 249.96 292.048 248.187C291.744 246.941 291.801 245.616 292.21 244.409C292.684 243.001 293.519 241.79 294.608 240.933C294.312 240.569 294.102 240.125 293.997 239.642C293.892 239.16 293.896 238.656 294.008 238.176C294.376 236.724 295.137 235.442 296.182 234.514C295.805 234.033 295.599 233.409 295.603 232.764C295.603 229.288 301.2 224.051 307.548 223.054C307.683 223.033 307.82 223.073 307.928 223.167C308.037 223.26 308.108 223.399 308.127 223.553C308.146 223.706 308.111 223.862 308.029 223.986C307.947 224.11 307.825 224.192 307.69 224.213C301.657 225.152 296.599 230.134 296.619 232.764C296.617 233.157 296.748 233.534 296.984 233.819C298.351 232.762 299.888 232.026 301.506 231.654C303.125 231.282 304.792 231.281 306.411 231.652C309.529 232.336 310.799 233.089 310.656 234.166C310.372 236.194 303.739 236.623 299.29 236.02C298.493 235.938 297.718 235.682 297.005 235.267C296.047 236.045 295.335 237.154 294.973 238.43C294.886 238.768 294.887 239.127 294.975 239.465C295.064 239.802 295.236 240.103 295.471 240.331C297.36 239.172 300.011 238.755 303.516 239.636C308.117 240.794 308.29 241.432 308.401 241.814C308.437 241.949 308.44 242.093 308.41 242.229C308.379 242.366 308.317 242.491 308.229 242.59C307.264 243.749 300.204 243.204 296.659 242.208C296.231 242.096 295.818 241.921 295.43 241.686C294.381 242.414 293.574 243.518 293.135 244.827C292.842 245.673 292.761 246.596 292.901 247.492C293.082 247.368 293.268 247.256 293.46 247.155C295.562 245.997 298.102 246.205 301.24 247.735C303.272 248.743 304.288 249.647 304.389 250.562C304.394 250.797 304.342 251.029 304.24 251.233C304.138 251.437 303.99 251.605 303.81 251.721C302.256 252.879 296.832 252.717 294.008 251.002C293.359 250.6 292.818 250.003 292.444 249.276C290.788 251.014 289.448 254.108 288.229 258.963C288.192 259.068 288.129 259.159 288.048 259.225C287.967 259.29 287.871 259.328 287.772 259.333ZM293.277 248.523C293.56 249.122 293.991 249.614 294.516 249.936C296.812 251.327 301.322 251.64 303.008 250.863C303.353 250.701 303.404 250.574 303.404 250.574C303.404 250.574 303.353 249.925 300.865 248.708C298.021 247.318 295.786 247.121 293.927 248.106C293.703 248.229 293.486 248.368 293.277 248.523ZM296.67 240.91L296.924 240.991C300.231 241.861 303.635 242.154 307.02 241.86C305.819 241.352 304.582 240.964 303.323 240.702C301.135 240.025 298.821 240.098 296.67 240.91ZM297.949 234.398C298.418 234.59 298.906 234.714 299.402 234.769C304.481 235.453 308.94 234.653 309.559 233.923C309.387 233.749 308.706 233.251 306.187 232.706C303.353 232.062 300.409 232.666 297.949 234.398Z" fill="#263238"/>
<path d="M155.542 377.625C156.212 377.382 155.989 376.64 155.237 376.64H141.484C115.298 373.477 97.0047 377.718 108.533 378.715C120.062 379.711 107.721 379.502 99.3003 383.141C90.8798 386.779 161.921 387.694 168.371 383.141C174.303 378.946 146.258 381.02 155.542 377.625Z" fill="#263238"/>
<path d="M254.008 382.249L134.354 377.718L129.387 245.371L270.687 248.975L254.008 382.249Z" fill="#407BFF"/>
<path d="M171.713 379.711C171.585 379.712 171.461 379.657 171.367 379.558C171.273 379.459 171.215 379.324 171.205 379.178L161.616 246.252C161.608 246.099 161.652 245.948 161.739 245.831C161.826 245.714 161.95 245.641 162.084 245.626C162.217 245.619 162.348 245.67 162.45 245.769C162.552 245.868 162.617 246.008 162.632 246.159L172.271 379.085C172.277 379.162 172.269 379.238 172.249 379.311C172.228 379.384 172.195 379.451 172.152 379.509C172.109 379.567 172.055 379.615 171.996 379.65C171.936 379.684 171.871 379.705 171.804 379.711H171.713Z" fill="#263238"/>
<path d="M254.009 382.248L286.167 376.663L296.294 253.598L270.687 248.974L254.009 382.248Z" fill="#407BFF"/>
<path opacity="0.2" d="M254.009 382.248L286.167 376.663L296.294 253.598L270.687 248.974L254.009 382.248Z" fill="black"/>
<path d="M144.572 352.215L141.626 273.574C141.554 271.631 141.831 269.692 142.442 267.876C143.052 266.061 143.982 264.407 145.175 263.018C146.368 261.629 147.798 260.534 149.377 259.801C150.956 259.067 152.649 258.711 154.354 258.754L243.8 261.071C245.561 261.117 247.294 261.588 248.884 262.453C250.474 263.318 251.886 264.558 253.025 266.091C254.164 267.624 255.006 269.415 255.494 271.346C255.982 273.277 256.106 275.304 255.857 277.293L245.943 356.479C245.514 359.947 243.978 363.113 241.63 365.368C239.281 367.624 236.285 368.812 233.216 368.703L156.639 365.807C153.495 365.696 150.505 364.234 148.267 361.713C146.029 359.192 144.709 355.799 144.572 352.215Z" fill="#263238"/>
<path d="M154.242 282.89L168.077 283.388L167.965 287.455L159.301 287.142L159.219 290.178L167.254 290.468L167.142 294.361L159.108 294.06L159.006 297.825L167.914 298.15L167.792 302.46L153.704 301.95L154.242 282.89Z" fill="white"/>
<path d="M170.646 302.565L171.174 283.504L179.788 283.817C181.023 283.81 182.252 284.013 183.434 284.42C184.273 284.74 184.989 285.378 185.466 286.227C185.819 286.846 186.056 287.541 186.164 288.269C186.271 288.997 186.246 289.742 186.089 290.459C185.933 291.175 185.649 291.847 185.255 292.433C184.861 293.018 184.366 293.505 183.8 293.863C183.222 294.202 182.602 294.437 181.961 294.558C182.434 294.732 182.882 294.981 183.292 295.3C183.588 295.614 183.854 295.963 184.084 296.343C184.346 296.703 184.577 297.091 184.775 297.501L187.121 303.121L181.291 302.901L178.691 296.98C178.484 296.414 178.18 295.902 177.797 295.474C177.432 295.173 176.997 295.003 176.547 294.987H176.09L175.877 302.715L170.646 302.565ZM176.151 291.418L178.325 291.499C178.787 291.467 179.245 291.394 179.696 291.279C180.036 291.22 180.344 291.017 180.56 290.711C180.779 290.402 180.904 290.02 180.915 289.622C180.934 289.357 180.902 289.091 180.819 288.842C180.736 288.594 180.606 288.369 180.438 288.185C179.871 287.768 179.202 287.569 178.528 287.618L176.253 287.536L176.151 291.418Z" fill="white"/>
<path d="M188.808 303.179L189.336 284.118L197.939 284.431C199.174 284.423 200.403 284.626 201.586 285.033C202.426 285.35 203.143 285.989 203.617 286.841C204.133 287.769 204.375 288.861 204.308 289.958C204.311 290.882 204.094 291.791 203.681 292.586C203.268 293.382 202.674 294.035 201.962 294.477C201.383 294.814 200.763 295.048 200.123 295.172C200.592 295.345 201.037 295.595 201.443 295.914C201.747 296.218 202.017 296.565 202.246 296.945C202.506 297.307 202.737 297.695 202.937 298.103L205.283 303.712L199.453 303.503L196.852 297.582C196.645 297.018 196.341 296.506 195.958 296.076C195.595 295.763 195.154 295.592 194.699 295.589H194.252L194.029 303.329L188.808 303.179ZM194.303 292.032L196.487 292.101C196.948 292.081 197.408 292.012 197.858 291.893C198.196 291.835 198.501 291.632 198.711 291.325C198.939 291.021 199.065 290.635 199.067 290.236C199.089 289.972 199.058 289.705 198.977 289.456C198.896 289.208 198.767 288.983 198.599 288.799C198.033 288.371 197.357 288.171 196.68 288.231L194.415 288.15L194.303 292.032Z" fill="white"/>
<path d="M206.116 294.326C206.037 292.996 206.218 291.663 206.645 290.422C207.072 289.181 207.735 288.063 208.586 287.149C209.437 286.235 210.454 285.548 211.566 285.136C212.677 284.724 213.855 284.598 215.014 284.767C216.184 284.723 217.349 284.947 218.442 285.427C219.534 285.907 220.531 286.632 221.372 287.559C222.124 288.546 222.691 289.697 223.04 290.942C223.39 292.187 223.513 293.5 223.404 294.801C223.412 296.694 223.022 298.562 222.266 300.247C221.581 301.626 220.557 302.746 219.321 303.468C217.863 304.263 216.25 304.615 214.638 304.488C213.031 304.504 211.441 304.108 209.986 303.329C208.747 302.563 207.736 301.393 207.081 299.969C206.313 298.224 205.979 296.272 206.116 294.326ZM211.276 294.535C211.124 295.995 211.414 297.471 212.099 298.718C212.419 299.126 212.808 299.456 213.242 299.688C213.677 299.921 214.148 300.051 214.628 300.072C215.107 300.093 215.585 300.003 216.034 299.808C216.483 299.613 216.892 299.317 217.238 298.938C217.991 297.637 218.348 296.09 218.254 294.535C218.39 293.138 218.092 291.731 217.411 290.56C217.103 290.156 216.722 289.831 216.295 289.609C215.867 289.387 215.402 289.273 214.933 289.274C214.459 289.235 213.983 289.319 213.541 289.52C213.1 289.721 212.704 290.033 212.383 290.433C211.614 291.616 211.223 293.063 211.276 294.535Z" fill="white"/>
<path d="M226.014 304.581L226.543 285.509L235.146 285.822C236.381 285.819 237.609 286.022 238.792 286.424C239.628 286.749 240.344 287.386 240.824 288.232C241.337 289.161 241.579 290.253 241.515 291.349C241.519 292.275 241.304 293.186 240.891 293.984C240.477 294.782 239.882 295.437 239.168 295.879C238.588 296.207 237.968 296.437 237.33 296.563C237.8 296.739 238.245 296.993 238.65 297.316C238.954 297.621 239.223 297.967 239.453 298.347C239.714 298.708 239.946 299.096 240.143 299.506L242.49 305.126L236.659 304.917L234.059 298.985C233.852 298.423 233.548 297.914 233.165 297.49C232.801 297.179 232.361 297.005 231.906 296.992H231.459L231.235 304.732L226.014 304.581ZM231.51 293.423L233.693 293.504C234.155 293.484 234.614 293.414 235.065 293.295C235.401 293.234 235.705 293.031 235.918 292.728C236.158 292.405 236.284 291.992 236.273 291.569C236.295 291.306 236.265 291.042 236.184 290.795C236.103 290.548 235.974 290.325 235.806 290.144C235.24 289.715 234.564 289.516 233.886 289.576L231.621 289.495L231.51 293.423Z" fill="white"/>
<path d="M234.232 336.967C234.041 336.971 233.852 336.928 233.677 336.843C233.502 336.757 233.345 336.629 233.216 336.468L224.521 325.611L215.136 335.391C214.876 335.663 214.532 335.805 214.18 335.788C213.827 335.771 213.495 335.594 213.257 335.298L204.562 324.441L195.177 334.221C194.916 334.492 194.572 334.635 194.22 334.618C193.868 334.6 193.536 334.424 193.297 334.128L184.592 323.271L175.217 333.05C175.08 333.192 174.92 333.299 174.745 333.367C174.57 333.435 174.385 333.461 174.201 333.444C173.848 333.42 173.517 333.242 173.277 332.946L164.582 322.1L155.207 331.868C154.945 332.141 154.6 332.284 154.246 332.267C153.892 332.249 153.558 332.073 153.318 331.776C153.199 331.629 153.107 331.456 153.048 331.269C152.988 331.081 152.962 330.882 152.97 330.682C152.979 330.483 153.022 330.287 153.097 330.107C153.173 329.926 153.279 329.765 153.409 329.632L163.77 318.821C164.031 318.549 164.377 318.406 164.731 318.423C165.085 318.44 165.419 318.617 165.659 318.914L174.354 329.771L183.729 319.992C183.995 319.725 184.34 319.584 184.694 319.598C185.047 319.619 185.379 319.798 185.618 320.096L194.313 330.953L203.699 321.174C203.827 321.038 203.977 320.932 204.142 320.863C204.306 320.794 204.48 320.763 204.655 320.771C204.83 320.78 205.002 320.828 205.16 320.913C205.318 320.998 205.46 321.118 205.578 321.266L214.273 332.123L223.658 322.344C223.918 322.072 224.262 321.929 224.614 321.947C224.967 321.964 225.299 322.14 225.537 322.436L235.248 334.464C235.421 334.685 235.535 334.959 235.574 335.253C235.613 335.546 235.577 335.846 235.469 336.117C235.361 336.387 235.187 336.615 234.967 336.775C234.748 336.934 234.492 337.017 234.232 337.013V336.967Z" fill="white"/>
<path d="M73.4903 385.064L67.1317 381.599L61.4639 350.118L64.5416 346.259L73.4903 385.064Z" fill="#407BFF"/>
<path d="M73.4905 385.064L81.9313 379.433L74.6992 353.501L64.5417 346.259L73.4905 385.064Z" fill="#407BFF"/>
<path opacity="0.2" d="M73.4905 385.064L81.9313 379.433L74.6992 353.501L64.5417 346.259L73.4905 385.064Z" fill="black"/>
<path d="M211.886 390.788H211.185C209.838 390.747 208.561 390.097 207.634 388.981C206.707 387.865 206.207 386.375 206.243 384.838C206.28 383.302 206.85 381.845 207.828 380.788C208.806 379.73 210.112 379.16 211.459 379.201C219.28 379.491 235.837 374.01 245.304 363.536C245.875 362.896 246.571 362.42 247.335 362.145C263.374 356.653 269.336 367.742 269.58 368.217L260.845 374.115C260.875 374.188 260.913 374.258 260.956 374.323C260.865 374.173 258.59 370.847 251.358 372.886C239.484 385.238 221.261 390.788 211.886 390.788Z" fill="#263238"/>
<path d="M211.266 398.482L192.769 397.161L191.317 358.252L216.172 359.307L211.266 398.482Z" fill="#407BFF"/>
<path d="M211.266 398.482L215.593 393.569L218.275 369.318L216.172 359.306L211.266 398.482Z" fill="#407BFF"/>
<path opacity="0.2" d="M211.266 398.482L215.593 393.569L218.275 369.318L216.172 359.306L211.266 398.482Z" fill="black"/>
<path d="M318.447 383.755C317.783 383.754 317.138 383.506 316.609 383.048C306.045 373.894 291.774 357.638 286.299 341.961C286.217 341.734 286.159 341.496 286.126 341.254C283.455 323.132 280.905 284.999 280.794 283.388C280.764 282.932 280.813 282.473 280.938 282.038C281.064 281.603 281.263 281.201 281.525 280.854C282.053 280.153 282.804 279.721 283.612 279.651C284.421 279.582 285.22 279.882 285.834 280.485C286.448 281.088 286.828 281.945 286.888 282.867C286.888 283.249 289.499 321.753 292.099 339.724C297.564 354.973 312.414 370.627 320.316 377.51C320.825 377.95 321.2 378.562 321.387 379.258C321.575 379.955 321.566 380.701 321.362 381.391C321.157 382.081 320.768 382.681 320.249 383.105C319.729 383.529 319.106 383.757 318.468 383.755H318.447Z" fill="#263238"/>
<path d="M332.536 385.505C330.179 385.505 327.508 384.288 324.593 381.889C323.938 381.349 323.499 380.533 323.371 379.623C323.243 378.712 323.438 377.781 323.912 377.034C324.386 376.288 325.101 375.786 325.899 375.641C326.697 375.495 327.514 375.717 328.168 376.258C330.687 378.332 332.058 378.576 332.536 378.576C333.344 378.576 334.119 378.942 334.691 379.594C335.262 380.246 335.583 381.13 335.583 382.052C335.583 382.974 335.262 383.858 334.691 384.51C334.119 385.162 333.344 385.528 332.536 385.528V385.505Z" fill="#263238"/>
<path d="M325.446 381.785C328.706 370.743 342.073 372.921 346.685 374.566C350.624 375.871 354.402 377.74 357.929 380.128C360.418 381.982 360.458 385.099 357.137 386.872C353.074 389.05 342.754 387.115 342.754 387.115C348.076 389.769 342.754 394.067 333.399 389.85C330.362 388.482 324.298 385.841 325.446 381.785Z" fill="#407BFF"/>
<path d="M293.003 288.116C291.794 297.501 284.978 304.419 279.432 303.492C273.886 302.565 273.663 294.222 274.872 284.79C276.081 275.358 278.275 268.568 283.82 269.495C289.366 270.422 294.212 278.765 293.003 288.116Z" fill="#263238"/>
<path d="M158.945 250.69C159.405 250.69 159.778 250.264 159.778 249.739C159.778 249.215 159.405 248.789 158.945 248.789C158.485 248.789 158.112 249.215 158.112 249.739C158.112 250.264 158.485 250.69 158.945 250.69Z" fill="#263238"/>
<path d="M167.406 256.576C167.406 256.764 167.357 256.947 167.266 257.103C167.174 257.26 167.044 257.382 166.892 257.453C166.74 257.525 166.572 257.544 166.411 257.508C166.249 257.471 166.101 257.38 165.984 257.247C165.868 257.115 165.788 256.945 165.756 256.761C165.724 256.577 165.741 256.386 165.804 256.212C165.867 256.038 165.973 255.89 166.11 255.786C166.247 255.681 166.408 255.625 166.573 255.625C166.794 255.625 167.006 255.726 167.162 255.904C167.318 256.082 167.406 256.324 167.406 256.576Z" fill="#263238"/>
<path d="M168.34 368.854C168.34 369.042 168.292 369.226 168.2 369.382C168.108 369.538 167.978 369.66 167.826 369.732C167.674 369.804 167.507 369.823 167.345 369.786C167.183 369.749 167.035 369.659 166.919 369.526C166.802 369.393 166.723 369.224 166.691 369.039C166.658 368.855 166.675 368.664 166.738 368.49C166.801 368.317 166.908 368.168 167.045 368.064C167.182 367.96 167.343 367.904 167.507 367.904C167.728 367.904 167.94 368.004 168.096 368.182C168.253 368.36 168.34 368.602 168.34 368.854Z" fill="#263238"/>
<path d="M175.969 375.702C175.969 375.89 175.92 376.074 175.828 376.23C175.737 376.386 175.607 376.508 175.455 376.58C175.302 376.652 175.135 376.671 174.973 376.634C174.812 376.597 174.663 376.507 174.547 376.374C174.43 376.241 174.351 376.072 174.319 375.887C174.287 375.703 174.303 375.512 174.366 375.339C174.429 375.165 174.536 375.017 174.673 374.912C174.81 374.808 174.971 374.752 175.136 374.752C175.357 374.752 175.569 374.852 175.725 375.03C175.881 375.208 175.969 375.45 175.969 375.702Z" fill="#263238"/>
<path d="M29.5697 387.092C28.1074 387.014 26.6791 386.563 25.3904 385.77C24.1017 384.978 22.9855 383.866 22.1243 382.516C22.0821 382.453 22.0514 382.382 22.0341 382.306C22.0168 382.23 22.0132 382.151 22.0237 382.073C22.0341 381.995 22.0583 381.921 22.0948 381.854C22.1312 381.787 22.1792 381.73 22.2358 381.685C22.2924 381.64 22.3564 381.609 22.4239 381.593C22.4914 381.577 22.5611 381.577 22.6286 381.593C22.696 381.609 22.76 381.641 22.8165 381.686C22.873 381.731 22.9209 381.788 22.9572 381.855C24.8567 384.984 29.0517 386.64 30.88 385.656C31.0631 385.567 31.2263 385.432 31.3574 385.262C30.4336 384.798 29.6241 384.082 29.0005 383.176C28.3769 382.271 27.9584 381.204 27.782 380.071C27.5484 378.599 27.3655 376.595 28.4219 376.34C29.8846 375.969 31.7942 379.99 32.4849 383.037C32.61 383.541 32.6547 384.067 32.617 384.59C33.2028 384.789 33.819 384.844 34.425 384.752C34.698 384.728 34.9637 384.639 35.205 384.492C35.4464 384.344 35.6581 384.141 35.8267 383.894C35.1582 383.319 34.6037 382.589 34.1994 381.753C33.7951 380.916 33.55 379.991 33.4803 379.039C33.0944 375.865 33.3889 375.32 33.6936 375.042C33.7924 374.956 33.9102 374.902 34.034 374.888C34.1578 374.874 34.2826 374.899 34.3945 374.961C35.4814 375.482 36.7917 379.978 37.0456 382.527C37.076 382.792 37.076 383.061 37.0456 383.327C37.4835 383.519 37.9478 383.621 38.4169 383.628C39.2782 383.666 40.1301 383.412 40.8648 382.898C40.7226 382.794 40.5906 382.678 40.4585 382.562C39.4428 381.531 38.9755 379.885 39.1583 377.545C39.3006 375.726 39.6561 374.729 40.296 374.416C40.5024 374.322 40.7285 374.298 40.9467 374.347C41.1649 374.396 41.3658 374.517 41.525 374.694C42.2107 375.558 42.7231 376.582 43.0266 377.694C43.3301 378.807 43.4173 379.982 43.2823 381.137C43.1941 381.618 43.0175 382.072 42.7642 382.469C44.6332 382.84 47.2538 382.237 49.519 381.6C49.5856 381.582 49.6548 381.579 49.7226 381.591C49.7903 381.603 49.8553 381.631 49.9138 381.672C49.9723 381.712 50.0231 381.766 50.0634 381.829C50.1037 381.893 50.1327 381.964 50.1487 382.04C50.1647 382.117 50.1674 382.195 50.1567 382.273C50.146 382.35 50.122 382.424 50.0861 382.491C50.0503 382.558 50.0033 382.616 49.9478 382.662C49.8923 382.708 49.8294 382.741 49.7627 382.759C47.0101 383.535 44.0441 384.172 41.9516 383.477C40.9302 384.363 39.6795 384.836 38.3965 384.821C37.8272 384.813 37.2635 384.691 36.7307 384.462C36.4944 384.879 36.1774 385.228 35.804 385.484C35.4307 385.739 35.011 385.893 34.5773 385.934C33.8138 386.046 33.0381 385.971 32.3021 385.714C32.0651 386.169 31.7102 386.529 31.2863 386.745C30.7415 386.996 30.1569 387.114 29.5697 387.092ZM28.6962 377.498C28.5557 378.286 28.5835 379.101 28.7774 379.874C28.9207 380.8 29.2577 381.674 29.7599 382.42C30.2621 383.166 30.9146 383.763 31.6622 384.161C31.6479 383.886 31.6071 383.614 31.5403 383.35C30.748 380.036 29.2244 377.753 28.6962 377.498ZM34.3539 376.49C34.3605 377.29 34.4182 378.087 34.5266 378.877C34.6385 380.29 35.1855 381.612 36.0705 382.608C35.8205 380.469 35.2393 378.397 34.3539 376.49ZM40.7429 375.482C40.7429 375.482 40.3569 375.702 40.2147 377.637C40.0725 379.572 40.3671 380.905 41.1594 381.681C41.3468 381.855 41.5514 382.002 41.7688 382.122C42.0359 381.796 42.2248 381.396 42.3173 380.963C42.4982 379.139 42.0663 377.305 41.1086 375.83C40.8953 375.529 40.7734 375.482 40.7429 375.482Z" fill="#263238"/>
<path d="M178.234 395.852L180.987 390.406L178.234 384.96H175.288L176.954 390.406L175.288 395.852H178.234Z" fill="#263238"/>
<path d="M175.481 393.245C175.142 393.27 174.802 393.215 174.481 393.084C174.161 392.953 173.868 392.748 173.62 392.482C173.372 392.217 173.174 391.896 173.039 391.54C172.904 391.184 172.834 390.8 172.834 390.412C172.834 390.024 172.904 389.64 173.039 389.284C173.174 388.928 173.372 388.607 173.62 388.342C173.868 388.076 174.161 387.871 174.481 387.74C174.802 387.609 175.142 387.554 175.481 387.579L170.809 386.513L169.56 390.823L171.652 394.462L175.481 393.245Z" fill="#263238"/>
<path d="M175.888 384.96H170.372L167.619 390.406L170.372 395.852H175.888L178.64 390.406L175.888 384.96ZM173.135 393.245C172.642 393.247 172.16 393.083 171.75 392.772C171.339 392.462 171.018 392.019 170.829 391.501C170.639 390.982 170.588 390.411 170.683 389.86C170.778 389.308 171.014 388.801 171.361 388.403C171.709 388.005 172.152 387.733 172.635 387.623C173.118 387.512 173.619 387.568 174.075 387.783C174.53 387.997 174.919 388.361 175.193 388.828C175.467 389.295 175.613 389.844 175.613 390.406C175.613 391.157 175.353 391.878 174.888 392.41C174.424 392.942 173.793 393.242 173.135 393.245Z" fill="#407BFF"/>
<path d="M370.23 384.589L368.188 380.545L370.23 376.501H372.414L371.185 380.545L372.414 384.589H370.23Z" fill="#407BFF"/>
<path d="M372.272 382.654C372.526 382.676 372.78 382.637 373.02 382.542C373.26 382.446 373.48 382.294 373.667 382.097C373.853 381.899 374.002 381.66 374.103 381.394C374.205 381.128 374.258 380.841 374.258 380.551C374.258 380.261 374.205 379.974 374.103 379.708C374.002 379.442 373.853 379.203 373.667 379.006C373.48 378.809 373.26 378.657 373.02 378.561C372.78 378.465 372.526 378.427 372.272 378.448L375.746 377.66L376.67 380.858L375.126 383.558L372.272 382.654Z" fill="#407BFF"/>
<path d="M371.978 376.501H376.041L378.072 380.545L376.041 384.589H371.978L369.946 380.545L371.978 376.501ZM374.009 382.654C374.375 382.656 374.734 382.535 375.039 382.304C375.344 382.074 375.583 381.746 375.724 381.36C375.866 380.975 375.904 380.551 375.834 380.141C375.763 379.731 375.588 379.354 375.33 379.058C375.072 378.762 374.742 378.56 374.384 378.478C374.025 378.396 373.653 378.437 373.314 378.596C372.976 378.755 372.686 379.026 372.483 379.373C372.279 379.72 372.171 380.128 372.171 380.545C372.169 380.823 372.216 381.098 372.309 381.354C372.401 381.611 372.537 381.844 372.709 382.04C372.881 382.236 373.085 382.391 373.31 382.497C373.535 382.602 373.776 382.656 374.019 382.654H374.009Z" fill="#263238"/>
<path d="M294.161 389.966H298.752C299.327 389.963 299.877 389.7 300.283 389.235C300.688 388.771 300.916 388.142 300.916 387.486C300.916 386.831 300.688 386.202 300.283 385.737C299.877 385.272 299.327 385.01 298.752 385.007H294.161C293.585 385.007 293.032 385.268 292.624 385.733C292.217 386.198 291.988 386.829 291.988 387.486C291.988 388.144 292.217 388.775 292.624 389.24C293.032 389.705 293.585 389.966 294.161 389.966Z" fill="#263238"/>
<path d="M286.777 385.285C287.203 384.401 287.846 383.678 288.628 383.207C289.409 382.735 290.295 382.534 291.175 382.63C292.056 382.725 292.892 383.113 293.582 383.744C294.272 384.376 294.784 385.224 295.056 386.183C295.329 387.143 295.349 388.173 295.114 389.145C294.88 390.118 294.401 390.991 293.736 391.657C293.072 392.323 292.251 392.752 291.376 392.892C290.5 393.032 289.607 392.877 288.808 392.445C287.71 391.799 286.88 390.684 286.499 389.343C286.118 388.001 286.218 386.542 286.777 385.285Z" fill="#407BFF"/>
<path d="M288.015 392.444L289.274 393.121L293.649 382.535L292.39 381.859L288.015 392.444Z" fill="#263238"/>
</svg>
