<svg width="30" height="30" viewBox="0 0 30 30" fill="none" xmlns="http://www.w3.org/2000/svg">
<g clip-path="url(#clip0_234_6)">
<path d="M29.9942 10.2539C29.461 5.82422 25.4004 2.49609 20.7188 0.955078C22.8516 3.26367 24.375 6.84961 24.375 11.25H26.0215L19.1895 18.8379C19.043 18.8027 18.9082 18.75 18.75 18.75H15.9375V11.25H22.5C22.5 4.5 18.4629 0 15 0C11.5371 0 7.50003 4.5 7.50003 11.25H14.0625V18.75H11.25C11.0918 18.75 10.9571 18.8027 10.8106 18.8379L3.97855 11.25H5.62503C5.62503 6.84961 7.14847 3.26367 9.28128 0.955078C4.59964 2.50195 0.539097 5.83008 0.00589336 10.2539C-0.0585598 10.7871 0.404331 11.25 0.943393 11.25H1.45316L9.46293 20.1504C9.42191 20.3027 9.36917 20.4551 9.36917 20.625V28.125C9.36917 29.1621 10.2071 30 11.2442 30H18.7442C19.7813 30 20.6192 29.1621 20.6192 28.125V20.625C20.6192 20.4551 20.5664 20.3086 20.5254 20.1504L28.541 11.25H29.0508C29.5957 11.25 30.0586 10.793 29.9942 10.2539V10.2539Z" fill="url(#paint0_linear_234_6)"/>
</g>
<defs>
<linearGradient id="paint0_linear_234_6" x1="30" y1="-3.99931" x2="3.50069" y2="41.5002" gradientUnits="userSpaceOnUse">
<stop stop-color="#0094e2"/>
<stop offset="1" stop-color="#0094e2"/>
</linearGradient>
<clipPath id="clip0_234_6">
<rect width="30" height="30" fill="white"/>
</clipPath>
</defs>
</svg>
