<svg width="24" height="30" viewBox="0 0 24 30" fill="none" xmlns="http://www.w3.org/2000/svg">
<path d="M12 3.75L10.125 0H8.25L6.375 3.75L4.5 0H3.5625C2.00977 0 0.75 1.25977 0.75 2.8125V15H23.25V2.8125C23.25 1.25977 21.9902 0 20.4375 0H13.875L12 3.75ZM0.75 16.875V18.75C0.75 20.8184 2.43164 22.5 4.5 22.5H8.25V26.25C8.25 28.3184 9.93164 30 12 30C14.0684 30 15.75 28.3184 15.75 26.25V22.5H19.5C21.5684 22.5 23.25 20.8184 23.25 18.75V16.875H0.75ZM12 27.1875C11.4844 27.1875 11.0625 26.7656 11.0625 26.25C11.0625 25.7344 11.4844 25.3125 12 25.3125C12.5156 25.3125 12.9375 25.7344 12.9375 26.25C12.9375 26.7656 12.5156 27.1875 12 27.1875Z" fill="url(#paint0_linear_234_27)"/>
<defs>
<linearGradient id="paint0_linear_234_27" x1="23.2499" y1="-3.99931" x2="-6.26768" y2="34.0116" gradientUnits="userSpaceOnUse">
<stop stop-color="#0094e2"/>
<stop offset="1" stop-color="#0094e2"/>
</linearGradient>
</defs>
</svg>
