<svg width="30" height="28" viewBox="0 0 30 28" fill="none" xmlns="http://www.w3.org/2000/svg">
<path d="M3.75 0.875C1.68164 0.875 0 2.55664 0 4.625V23.375C0 25.4434 1.68164 27.125 3.75 27.125H26.25C28.3184 27.125 30 25.4434 30 23.375V10.25C30 8.18164 28.3184 6.5 26.25 6.5H4.6875C4.17187 6.5 3.75 6.07813 3.75 5.5625C3.75 5.04687 4.17187 4.625 4.6875 4.625H26.25C27.2871 4.625 28.125 3.78711 28.125 2.75C28.125 1.71289 27.2871 0.875 26.25 0.875H3.75ZM24.375 18.6875C23.3379 18.6875 22.5 17.8496 22.5 16.8125C22.5 15.7754 23.3379 14.9375 24.375 14.9375C25.4121 14.9375 26.25 15.7754 26.25 16.8125C26.25 17.8496 25.4121 18.6875 24.375 18.6875Z" fill="url(#paint0_linear_234_29)"/>
<defs>
<linearGradient id="paint0_linear_234_29" x1="29.9998" y1="-2.6244" x2="8.43073" y2="39.7" gradientUnits="userSpaceOnUse">
<stop stop-color="#0094e2"/>
<stop offset="1" stop-color="#0094e2"/>
</linearGradient>
</defs>
</svg>
