<svg width="30" height="24" viewBox="0 0 30 24" fill="none" xmlns="http://www.w3.org/2000/svg">
<path d="M29.0625 19.5H3.75V1.6875C3.75 1.16953 3.33047 0.75 2.8125 0.75H0.9375C0.419531 0.75 0 1.16953 0 1.6875V21.375C0 22.4104 0.839648 23.25 1.875 23.25H29.0625C29.5805 23.25 30 22.8305 30 22.3125V20.4375C30 19.9195 29.5805 19.5 29.0625 19.5ZM27.1875 2.625H20.2699C19.0172 2.625 18.3896 4.13965 19.2756 5.02559L21.174 6.92402L16.875 11.2236L12.576 6.92461C11.8436 6.19219 10.6564 6.19219 9.92461 6.92461L5.8998 10.9494C5.53359 11.3156 5.53359 11.9092 5.8998 12.2754L7.2252 13.6008C7.59141 13.967 8.18496 13.967 8.55117 13.6008L11.25 10.9014L15.549 15.2004C16.2814 15.9328 17.4686 15.9328 18.2004 15.2004L23.8254 9.57539L25.7238 11.4738C26.6098 12.3598 28.1244 11.7322 28.1244 10.4795V3.5625C28.125 3.04453 27.7055 2.625 27.1875 2.625Z" fill="url(#paint0_linear_234_19)"/>
<defs>
<linearGradient id="paint0_linear_234_19" x1="29.9998" y1="-2.24949" x2="13.2362" y2="36.1277" gradientUnits="userSpaceOnUse">
<stop stop-color="#0094e2"/>
<stop offset="1" stop-color="#0094e2"/>
</linearGradient>
</defs>
</svg>
