<svg width="30" height="30" viewBox="0 0 30 30" fill="none" xmlns="http://www.w3.org/2000/svg">
<g clip-path="url(#clip0_234_34)">
<path d="M20.625 18.75C25.8047 18.75 30 14.5547 30 9.375C30 8.47852 29.8711 7.61133 29.6367 6.78516C29.4551 6.15234 28.6758 6.01172 28.2129 6.47461L23.7129 10.9746C23.5371 11.1504 23.2969 11.25 23.0508 11.25H19.6875C19.1719 11.25 18.75 10.8281 18.75 10.3125V6.94922C18.75 6.70312 18.8496 6.46289 19.0254 6.28711L23.5254 1.78711C23.9883 1.32422 23.8418 0.544922 23.2148 0.363281C22.3887 0.128906 21.5215 0 20.625 0C15.4453 0 11.25 4.19531 11.25 9.375C11.25 10.4941 11.4492 11.5723 11.8066 12.5684L1.16602 23.209C0.421875 23.9531 0 24.9668 0 26.0215C0 28.2188 1.78125 30 3.97852 30C5.0332 30 6.04688 29.5781 6.79102 28.834L17.4316 18.1934C18.4277 18.5566 19.5059 18.75 20.625 18.75ZM4.6875 26.7188C3.9082 26.7188 3.28125 26.0918 3.28125 25.3125C3.28125 24.5332 3.9082 23.9062 4.6875 23.9062C5.4668 23.9062 6.09375 24.5332 6.09375 25.3125C6.09375 26.0918 5.4668 26.7188 4.6875 26.7188Z" fill="url(#paint0_linear_234_34)"/>
</g>
<defs>
<linearGradient id="paint0_linear_234_34" x1="29.9998" y1="-3.99931" x2="3.50037" y2="41.4999" gradientUnits="userSpaceOnUse">
<stop stop-color="#0094e2"/>
<stop offset="1" stop-color="#0094e2"/>
</linearGradient>
<clipPath id="clip0_234_34">
<rect width="30" height="30" fill="white"/>
</clipPath>
</defs>
</svg>
