<svg width="28" height="30" viewBox="0 0 28 30" fill="none" xmlns="http://www.w3.org/2000/svg">
<path d="M24.3125 0H3.6875C2.13477 0 0.875 1.25977 0.875 2.8125V27.1875C0.875 28.7402 2.13477 30 3.6875 30H24.3125C25.8652 30 27.125 28.7402 27.125 27.1875V2.8125C27.125 1.25977 25.8652 0 24.3125 0ZM14 28.125C12.9629 28.125 12.125 27.2871 12.125 26.25C12.125 25.2129 12.9629 24.375 14 24.375C15.0371 24.375 15.875 25.2129 15.875 26.25C15.875 27.2871 15.0371 28.125 14 28.125ZM24.3125 21.7969C24.3125 22.1836 23.9961 22.5 23.6094 22.5H4.39062C4.00391 22.5 3.6875 22.1836 3.6875 21.7969V3.51562C3.6875 3.12891 4.00391 2.8125 4.39062 2.8125H23.6094C23.9961 2.8125 24.3125 3.12891 24.3125 3.51562V21.7969Z" fill="url(#paint0_linear_234_9)"/>
<defs>
<linearGradient id="paint0_linear_234_9" x1="27.1248" y1="-3.99931" x2="-0.980982" y2="38.2259" gradientUnits="userSpaceOnUse">
<stop stop-color="#0094e2"/>
<stop offset="1" stop-color="#0094e2"/>
</linearGradient>
</defs>
</svg>
